<svg id="Layer_1" data-name="Layer 1" xmlns="http://www.w3.org/2000/svg" viewBox="0 0 1000 1000"><defs><style>
    .cls-1,.cls-2{fill:none;stroke-linecap:round;stroke-linejoin:round;}
    .cls-1{stroke:#555;stroke-opacity:0.39;stroke-width:0.8px;}
    .cls-2,.cls-6{stroke:#555;}.cls-2{stroke-width:0.5px;}
    .cls-3{fill:none;stroke:#9b4f96;}
    .cls-3,.cls-4,.cls-5,.cls-6{stroke-miterlimit:10;stroke-width:4px;}
    .cls-4{fill:none;stroke:#68217a;}
    .cls-5{fill:none;stroke:#813787;}
    .cls-6{fill:none;}
    
    .cls-1, .cls-2 {
        stroke-dasharray: 2000;
        stroke-dashoffset: 0;
        animation: dash1 5s linear forwards;
    }
    
    @-webkit-keyframes dash1 {
        0% {
            stroke-dashoffset: 2000;
            fill: transparent;
        }
        100% {
            stroke-dashoffset: 0;
            fill: transparent
        }
    }
    
    .cls-3 {
        stroke-dasharray: 4000;
        stroke-dashoffset: 0;
        animation: dash2 5s linear forwards;
    }
    
    @-webkit-keyframes dash2 {
        0% {
            stroke-dashoffset: 4000;
            fill: transparent;
        }
        75% {
            stroke-dashoffset: 0;
            fill: transparent;
        }
        100% {
            stroke-dashoffset: 0;
            fill: #9b4f96;
        }
    }
    
    .cls-4 {
        stroke-dasharray: 4000;
        stroke-dashoffset: 0;
        animation: dash3 5s linear forwards;
    }
    
    @-webkit-keyframes dash3 {
        0% {
            stroke-dashoffset: 4000;
            fill: transparent;
        }
        75% {
            stroke-dashoffset: 0;
            fill: transparent;
        }
        100% {
            stroke-dashoffset: 0;
            fill: #68217a;
        }
    }
    
    .cls-5 {
        stroke-dasharray: 4000;
        stroke-dashoffset: 0;
        animation: dash4 5s linear forwards;
    }
    
    @-webkit-keyframes dash4 {
        0% {
            stroke-dashoffset: 4000;
            fill: transparent;
        }
        75% {
            stroke-dashoffset: 0;
            fill: transparent;
        }
        100% {
            stroke-dashoffset: 0;
            fill: #813787;
        }
    }    
    
    
    .cls-6 {
        stroke-dasharray: 4000;
        stroke-dashoffset: 0;
        animation: dash5 5s linear forwards;
    }
    
    @-webkit-keyframes dash5 {
        0% {
            stroke-dashoffset: 4000;
            fill: transparent;
        }
        75% {
            stroke-dashoffset: 0;
            fill: transparent;
        }
        100% {
            stroke-dashoffset: 0;
            fill: #fff;
        }
    }
    
    
    </style></defs><title>C_Sharp_02</title><path id="path4169-7-5-7-8" class="cls-1" d="M494.91,38.55c-18.8,1-22,2.46-66,27.74-18.87,10.84-37.47,21.34-41.24,23.43S374.95,97,367.82,101.16s-15.25,9-18.18,10.68c-4.86,2.74-30.53,17.38-118.28,67.86-16.78,9.65-32.54,18.82-35.05,20.24s-17.95,10.23-34.3,19.68-32.34,18.65-35.62,20.43c-9.72,5.28-24.15,20.57-29.62,31.49-10.1,20.08-9.38,7.4-9.38,227.38,0,193.87.09,206,4.31,217.07,7.16,18.7,16.24,30.64,30.74,40.49,4.89,3.31,9.17,6.18,9.56,6.18s8.24,4.3,17.62,9.75,17.33,9.93,17.62,9.93,5,2.77,10.31,6S190.27,796,194,798.1c8.69,4.91,35.95,20.45,42,24,2.51,1.48,11.48,6.61,19.87,11.43s17.17,10,19.68,11.43c5.4,3.18,42.81,24.6,52.67,30.18,3.77,2.13,11.17,6.53,16.5,9.75s10,5.81,10.31,5.81,6.17,3.42,13.12,7.5,15.72,9.14,19.49,11.25,21.7,12.22,39.74,22.68c39.27,22.77,42.57,24.39,57.92,27.93,10.83,2.51,14.33,2.68,25.31.77,8.56-1.51,24-6.7,27.37-9.19,1.61-1.2,15.56-9.34,29.43-17.06,4.52-2.51,22.45-12.8,39.74-22.87s34.47-20,38.24-22.12C651.48,886.18,705.89,855,718,848c8.61-5,35-20.16,41.8-24,3.73-2.11,10.19-5.92,14.43-8.44,9.05-5.37,15.87-9.19,25.31-14.43,3.77-2.09,12.74-7.23,19.87-11.43s16.75-9.85,21.37-12.37,11.89-6.76,16.31-9.56a71.1,71.1,0,0,1,8.81-5.06c2.82,0,18.44-12,25.12-19.31,9.62-10.51,15.72-23.07,18.93-38.43,3.5-16.71,3.68-394,.19-410.89-3-14.3-9.67-27.79-18.56-37.68-9.5-10.57-14.52-13.91-57-37.87-3.77-2.13-15.05-8.58-25.12-14.43-15.32-8.91-90-52-105.35-60.73-2.51-1.43-12.81-7.27-22.87-13.12s-21.35-12.52-25.12-14.62-23.36-13.16-43.49-24.74-47.05-27-59.8-34.3c-28.53-16.37-37-19.12-57.92-18Z"/><path id="path4169-7-5-7" class="cls-2" d="M494.92,39.17c-18.8,1-22,2.46-66,27.74-18.87,10.84-37.47,21.34-41.24,23.43S375,97.58,367.83,101.78s-15.25,9-18.18,10.68c-4.86,2.74-30.53,17.38-118.28,67.86-16.78,9.65-32.54,18.82-35.05,20.24S178.36,210.8,162,220.25s-32.34,18.65-35.62,20.43c-9.72,5.28-24.15,20.57-29.62,31.49-10.1,20.08-9.38,7.4-9.38,227.38,0,193.87.09,206,4.31,217.07,7.16,18.7,16.24,30.64,30.74,40.49,4.89,3.31,9.17,6.18,9.56,6.18s8.24,4.3,17.62,9.75S167,783,167.25,783s5,2.77,10.31,6,12.72,7.62,16.5,9.75c8.69,4.91,35.95,20.45,42,24,2.51,1.48,11.48,6.61,19.87,11.43s17.17,10,19.68,11.43c5.4,3.18,42.81,24.6,52.67,30.18,3.77,2.13,11.17,6.53,16.5,9.75s10,5.81,10.31,5.81,6.17,3.42,13.12,7.5,15.72,9.14,19.49,11.25,21.7,12.22,39.74,22.68c39.27,22.77,42.57,24.39,57.92,27.93,10.83,2.51,14.33,2.68,25.31.77,8.56-1.51,24-6.7,27.37-9.19,1.61-1.2,15.56-9.34,29.43-17.06,4.52-2.51,22.45-12.8,39.74-22.87s34.47-20,38.24-22.12c6.06-3.41,60.46-34.62,72.54-41.61,8.61-5,35-20.16,41.8-24,3.73-2.11,10.19-5.92,14.43-8.44,9.05-5.37,15.87-9.19,25.31-14.43,3.77-2.09,12.74-7.23,19.87-11.43s16.75-9.85,21.37-12.37,11.89-6.76,16.31-9.56a71.1,71.1,0,0,1,8.81-5.06c2.82,0,18.44-12,25.12-19.31,9.62-10.51,15.72-23.07,18.93-38.43,3.5-16.71,3.68-394,.19-410.89-3-14.3-9.67-27.79-18.56-37.68-9.5-10.57-14.52-13.91-57-37.87-3.77-2.13-15.05-8.58-25.12-14.43-15.32-8.91-90-52-105.35-60.73-2.51-1.43-12.81-7.27-22.87-13.12s-21.35-12.52-25.12-14.62-23.36-13.16-43.49-24.74-47.05-27-59.8-34.3c-28.53-16.37-37-19.12-57.92-18Z"/><path id="path4169-7-5" class="cls-3" d="M494.9,38.32c-18.8,1-22,2.46-66,27.74C410,76.91,391.45,87.4,387.68,89.5s-12.74,7.24-19.87,11.43-15.25,9-18.18,10.68c-4.86,2.74-30.53,17.38-118.28,67.86-16.78,9.65-32.54,18.82-35.05,20.24S178.34,209.95,162,219.4,129.65,238,126.37,239.83c-9.72,5.28-24.15,20.57-29.62,31.49-10.1,20.08-9.38,7.4-9.38,227.38,0,193.87.09,206,4.31,217.07,7.16,18.7,16.24,30.64,30.74,40.49,4.89,3.31,9.17,6.18,9.56,6.18s8.24,4.3,17.62,9.75,17.33,9.93,17.62,9.93,5,2.77,10.31,6,12.72,7.62,16.5,9.75c8.69,4.91,35.95,20.45,42,24,2.51,1.48,11.48,6.61,19.87,11.43s17.17,10,19.68,11.43c5.4,3.18,42.81,24.6,52.67,30.18,3.77,2.13,11.17,6.53,16.5,9.75s10,5.81,10.31,5.81,6.17,3.42,13.12,7.5,15.72,9.14,19.49,11.25,21.7,12.22,39.74,22.68c39.27,22.77,42.57,24.39,57.92,27.93,10.83,2.51,14.33,2.68,25.31.77,8.56-1.51,24-6.7,27.37-9.19,1.61-1.2,15.56-9.34,29.43-17.06,4.52-2.51,22.45-12.8,39.74-22.87s34.47-20,38.24-22.12c6.06-3.41,60.46-34.62,72.54-41.61,8.61-5,35-20.16,41.8-24,3.73-2.11,10.19-5.92,14.43-8.44,9.05-5.37,15.87-9.19,25.31-14.43,3.77-2.09,12.74-7.23,19.87-11.43s16.75-9.85,21.37-12.37,11.89-6.76,16.31-9.56a71.1,71.1,0,0,1,8.81-5.06c2.82,0,18.44-12,25.12-19.31,9.62-10.51,15.72-23.07,18.93-38.43,3.5-16.71,3.68-394,.19-410.89-3-14.3-9.67-27.79-18.56-37.68-9.5-10.57-14.52-13.91-57-37.87-3.77-2.13-15.05-8.58-25.12-14.43-15.32-8.91-90-52-105.35-60.73-2.51-1.43-12.81-7.27-22.87-13.12s-21.35-12.52-25.12-14.62-23.36-13.16-43.49-24.74-47.05-27-59.8-34.3c-28.53-16.37-37-19.12-57.92-18Z"/><path id="path4169-7-58" class="cls-4" d="M102.15,735.76c10.27,15.78,15,15.54,58.89,41,18.83,10.92,37.22,21.78,40.91,24s12.64,7.41,19.83,11.49,15.45,8.69,18.35,10.41c4.8,2.84,30.32,17.75,117.91,68.51,16.75,9.7,32.56,18.77,35.06,20.23s17.83,10.43,34.2,19.87,32.32,18.68,35.5,20.63c9.44,5.78,29.89,10.62,42.08,9.9,22.44-1.3,11.09,4.42,201.6-105.57C874.38,759.31,884.87,753.15,892.31,744c12.62-15.55,18.42-29.38,19.69-46.87.39-5.88.77-11,.57-11.37s-.39-9.29-.39-20.13-.06-20-.19-20.23-.09-5.7,0-11.93.19-14.83.19-19.16c-.09-10-.29-41.36-.19-48.36,0-2.92,0-13.25,0-22.92s0-19.85.06-22.76c0-6.27-.09-49.38-.19-60.71,0-4.33.07-12.94.19-19.16s0-11.59-.09-11.84-.09-7.05-.07-15.11.05-18.19,0-22.51-.29-24.91-.19-45.76c.09-45.4-.19-49.06-4.77-64.13-1.87-6.14-4.78-9.25-7-12.85L100.19,731.1c1,1.57,1,3,2,4.66Z"/><path id="path4169-7" class="cls-5" d="M903,727.51c8.52-16.78,8.85-20.24,9-71,0-21.76.29-43.12.29-47.43s.09-14.65,0-22.92-.19-17.72-.19-21.09c.06-5.58.19-35.13.39-136.36,0-19.35,0-37.59,0-40.48s.09-20.66.09-39.55,0-37.33.09-41.06c.29-10.52-6.33-28.84-12.66-39.41L500,500,899.85,731.62c.86-1.6,2.09-2.28,3-4.09Z"/><path id="path4212" class="cls-6" d="M482,226.56v.19c-36.23,2.53-71.74,11.69-102.72,27.56-107.66,55.12-166.59,168.07-149.4,286.43,5.35,36.79,20.12,76,40.11,106.47,3.92,6,7.49,11.24,7.87,11.62s3.91,4.89,7.69,9.93c9.44,12.59,33.3,36.49,48,48,41.35,32.36,95.72,53.14,149.59,57.17,11.52.86,47.34-.67,59.42-2.44,5.88-.86,13-2,15.93-2.81s8.75-2.19,12.93-3.19c49.06-11.65,99.71-42.4,136.28-82.85,9.79-10.83,22.89-28.11,28.31-37.49l3.94-6.94-56.8-32.8c-31.19-18-57.76-33-59-33.18s-4.58,3.07-7.69,7.69c-15.09,22.41-41.44,42.29-67.86,51.17-19.18,6.45-24.21,7.13-46.49,7.12-24.65,0-38.12-2.76-57.55-11.62C430,620,420.6,613.53,406.27,600.16c-24.77-23.12-40-55.5-42.36-90.35-4.62-67,38.3-126.12,104.22-144,16-4.36,51.12-4.9,66-1,13.23,3.55,28,9.4,37.87,15,16.54,9.43,37,28.7,45.93,43.11,1.85,3,4.27,5.26,5.25,5.25s5.18-1.94,9.38-4.31c8.2-4.65,35.24-20.15,42.74-24.56,2.51-1.48,11.29-6.61,19.68-11.43s18-10.39,21.37-12.37,10.17-5.8,15-8.44,8.62-5.24,8.62-5.82-3.71-6.81-8.44-13.87c-33.52-50.11-84.78-89.15-141.9-108C555.32,228.18,518.22,224,482,226.54ZM738.44,433.14v17.43H721v35.05h17.43v34.87H721v35.05h17.43V573h35.05V555.54h34.87V573h35.05V555.54h17.43V520.49H843.41V485.62h17.43V450.57H843.41V433.14H808.36v17.43H773.49V433.14Zm35.05,52.49h34.87v34.87H773.49Z"/></svg>