<?xml version="1.0" encoding="utf-8"?>
<!-- Generator: Adobe Illustrator 20.1.0, SVG Export Plug-In . SVG Version: 6.00 Build 0)  -->
<svg version="1.1" id="Layer_1" xmlns="http://www.w3.org/2000/svg" xmlns:xlink="http://www.w3.org/1999/xlink" x="0px" y="0px"
	 viewBox="0 0 25 25" style="enable-background:new 0 0 25 25;" xml:space="preserve">
<style type="text/css">
	.st0{fill:#FFFFFF;}
	.st1{fill:#778B91;}
</style>
<g>
	<g>
		<rect class="st0" width="25" height="25"/>
		<g>
			<g>
				<polygon class="st1" points="24.4,15.3 25,16.2 25,16.2 24.4,15.3 				"/>
				<polygon class="st1" points="24.5,15.2 25,14.3 25,14.3 24.5,15.2 				"/>
				<polygon class="st1" points="18.2,15.3 18.2,15.3 19.2,17 				"/>
				<polygon class="st1" points="18.3,15.2 18.8,14.2 18.4,14.9 18.3,15.2 				"/>
				<polygon class="st1" points="19.3,24.2 19.3,24.3 18.8,25 18.8,25 19.3,24.2 				"/>
				<polygon class="st1" points="0,14.6 0,14.6 0,14.6 0.3,14.1 				"/>
				<polygon class="st1" points="0.1,10.8 0,11 0,11 0.2,10.7 				"/>
				<polygon class="st1" points="0.7,13.4 0,12.2 0,12.2 0.7,13.4 				"/>
				<polygon class="st1" points="0.5,13.3 0,12.3 0,12.3 0.6,13.3 				"/>
				<polygon class="st1" points="0.1,16 0,15.9 0,15.9 0.3,16.5 				"/>
				<polygon class="st1" points="0.6,24.2 0,23.1 0,23.1 0.6,24.2 				"/>
				<polygon class="st1" points="0.2,25 0.2,25 0.4,24.8 				"/>
				<polygon class="st1" points="0.4,20 0,19.4 0,19.4 0.2,19.8 				"/>
				<polygon class="st1" points="0.6,17.1 0,18.1 0,18.1 0.6,17.1 				"/>
				<polygon class="st1" points="0,1.4 0,1.4 0.1,1.5 				"/>
				<polygon class="st1" points="0,3.8 0,3.8 0,3.8 0.1,3.6 				"/>
				<polygon class="st1" points="0.6,2.6 0,3.7 0,3.7 0.6,2.6 				"/>
				<polygon class="st1" points="0,5 0,5 0.1,5.2 				"/>
				<polygon class="st1" points="0,10.9 0,10.9 0.6,9.8 				"/>
				<polygon class="st1" points="0.5,2.4 0,1.5 0,1.5 0.6,2.5 				"/>
				<polygon class="st1" points="0,0.2 0,0.2 0.1,0 				"/>
				<polygon class="st1" points="0.6,6.2 0,5.1 0,5.1 0.6,6.2 				"/>
				<polygon class="st1" points="0,8.7 0,8.7 0.6,9.8 				"/>
				<polygon class="st1" points="0,8.6 0,8.6 0.1,8.7 				"/>
				<polygon class="st1" points="0,0 0,0.1 0,0.1 0,0 				"/>
				<polygon class="st1" points="0.1,7.2 0,7.4 0,7.4 0.2,7.1 				"/>
				<polygon class="st1" points="0.5,6.4 0,7.3 0,7.3 0.5,6.5 				"/>
				<polygon class="st1" points="5.9,11.6 5.9,11.6 6.8,13.3 6.9,13.4 6.9,13.4 				"/>
				<polygon class="st1" points="5.9,15.2 5.9,15.2 6.2,14.5 				"/>
				<polygon class="st1" points="5.9,18.8 5.9,19 5.9,18.8 				"/>
				<polygon class="st1" points="5.9,18.8 5.9,18.8 5.9,18.7 				"/>
				<polygon class="st1" points="12,15.3 12,15.3 13,17 				"/>
				<polygon class="st1" points="12.2,18.5 12.1,18.8 12.1,18.8 12.4,18.2 				"/>
				<polygon class="st1" points="12.4,0.2 12.1,0.8 12.1,0.8 				"/>
				<polygon class="st1" points="12.6,10.7 12.1,11.6 12.1,11.6 				"/>
				<polygon class="st1" points="12.1,18.8 13.1,20.5 13.1,20.6 13.1,20.6 12.1,18.8 				"/>
				<polygon class="st1" points="12.6,7.1 12.1,8 12.1,8 				"/>
				<polygon class="st1" points="13.1,24.2 12.6,25 12.6,25 13.1,24.2 				"/>
				<polygon class="st1" points="12.1,11.6 12.1,11.6 12.7,12.7 13.1,13.4 13.1,13.4 				"/>
				<polygon class="st1" points="12.1,15.2 12.1,15.2 12.8,14 				"/>
				<polygon class="st1" points="12.1,4.4 12.4,5 12.1,4.4 				"/>
				<polygon class="st1" points="12.4,3.8 12.1,4.4 12.1,4.4 				"/>
				<polygon class="st1" points="24.5,0.8 24.9,0 24.9,0 24.5,0.8 				"/>
				<polygon class="st1" points="25,1.7 24.5,0.8 24.5,0.8 				"/>
				<polygon class="st1" points="24.5,0.8 24.5,0.8 24.5,0.8 25,0.8 25,0.8 				"/>
				<polygon class="st1" points="24.5,4.4 25,5.3 25,5.3 24.5,4.4 				"/>
				<polygon class="st1" points="24.5,4.4 24.5,4.4 25,4.4 25,4.4 24.5,4.4 				"/>
				<polygon class="st1" points="25,8.9 24.5,8 24.5,8 				"/>
				<polygon class="st1" points="24.5,8 24.5,8 25,8 25,8 24.5,8 				"/>
				<polygon class="st1" points="24.5,11.6 24.5,11.6 25,11.6 25,11.6 24.5,11.6 				"/>
				<polygon class="st1" points="24.5,15.2 24.5,15.2 24.5,15.2 25,15.2 25,15.2 24.5,15.2 				"/>
				<polygon class="st1" points="24.5,18.8 24.5,18.8 25,18.8 25,18.8 24.5,18.8 				"/>
				<polygon class="st1" points="24.5,22.4 25,21.5 25,21.5 24.5,22.4 				"/>
				<polygon class="st1" points="24.5,22.4 24.5,22.4 25,22.4 25,22.4 24.5,22.4 				"/>
				<polygon class="st1" points="25,25 25,25 25,25 25,25 				"/>
				<polygon class="st1" points="24.5,0.8 24.5,0.8 24.9,0 24.9,0 24.4,0.7 				"/>
				<polygon class="st1" points="24,0 24,0 24.2,0.4 				"/>
				<polygon class="st1" points="24.4,0.8 23.9,0 23.9,0 24.4,0.8 				"/>
				<polygon class="st1" points="22.4,0.8 22,0 22,0 22.4,0.8 				"/>
				<polygon class="st1" points="24.5,0.8 24.5,0.8 24.5,0.8 24.5,0.8 				"/>
				<polygon class="st1" points="24.4,0.8 24.4,0.7 24.5,0.8 24.5,0.8 24.4,0.7 24.2,0.4 24,0 23.9,0 24.4,0.8 				"/>
				<polygon class="st1" points="24.4,4.4 23.5,2.8 24.4,4.4 				"/>
				<polygon class="st1" points="24.1,3.8 23.4,2.6 23.4,2.6 				"/>
				<polygon class="st1" points="24.5,4.4 24.5,4.4 24.5,4.4 24.5,4.4 24.5,4.4 25,3.5 25,3.4 24.4,4.3 				"/>
				<polygon class="st1" points="23.4,2.6 24.4,0.8 24.4,0.8 23.4,2.6 				"/>
				<polygon class="st1" points="24.5,0.8 24.5,0.8 24.4,0.9 25,1.8 25,1.7 25,1.7 				"/>
				<polygon class="st1" points="24.5,0.8 24.4,0.7 24.4,0.8 				"/>
				<polygon class="st1" points="22.3,0.8 22,1.3 22.3,0.8 				"/>
				<polygon class="st1" points="24.5,0.8 24.5,0.8 24.4,0.8 24.4,0.8 24.4,0.8 22.4,0.8 22.4,0.8 22.4,0.8 22.4,0.8 24.4,0.8 
					24.4,0.8 23.4,2.6 23.4,2.6 23.4,2.6 23.4,2.6 23.4,2.6 24.4,0.9 24.5,0.8 24.5,0.8 24.5,0.8 24.5,0.8 				"/>
				<polygon class="st1" points="22.3,4.4 22.3,4.3 22.3,4.4 				"/>
				<polygon class="st1" points="22.4,4.4 22.4,4.4 21.7,3.2 				"/>
				<polygon class="st1" points="24.5,4.4 24.5,4.4 24.5,4.4 24.5,4.4 24.5,4.4 				"/>
				<polygon class="st1" points="23.4,2.6 23.4,2.6 23.4,2.6 23.4,2.6 21.4,2.6 21.4,2.6 21.4,2.6 23.4,2.6 23.5,2.8 24.4,4.4 
					24.4,4.4 24.4,4.3 24.5,4.4 24.5,4.4 24.4,4.3 24.1,3.8 23.4,2.6 				"/>
				<polygon class="st1" points="24.4,8 23.4,6.2 23.4,6.2 24.4,8 				"/>
				<polygon class="st1" points="23.9,7.1 23.4,6.2 23.4,6.2 				"/>
				<polygon class="st1" points="24.5,8 24.5,8 24.5,8 24.5,8 24.5,8 25,7.1 25,7 24.4,7.9 				"/>
				<polygon class="st1" points="24.4,4.4 24.4,4.4 23.5,5.9 				"/>
				<polygon class="st1" points="24.5,4.4 24.3,4.7 24.4,4.5 25,5.4 25,5.3 24.5,4.4 				"/>
				<polygon class="st1" points="24.5,4.4 24.4,4.3 24.4,4.4 				"/>
				<polygon class="st1" points="22.1,4.8 22.3,4.4 22.3,4.4 22.3,4.4 				"/>
				<polygon class="st1" points="24.4,4.4 24.4,4.4 24.4,4.4 22.4,4.4 22.4,4.4 22.4,4.4 21.4,6.2 21.4,6.2 22.4,4.4 24.4,4.4 
					24.4,4.4 23.5,5.9 23.4,6.2 23.4,6.2 23.4,6.2 23.4,6.2 23.4,6.2 24.3,4.7 24.5,4.4 24.5,4.4 24.5,4.4 24.5,4.4 24.5,4.4 				
					"/>
				<polygon class="st1" points="22.3,8 22.3,7.9 22.3,8 				"/>
				<polygon class="st1" points="22.4,8 22.4,8 22,7.3 				"/>
				<polygon class="st1" points="24.5,8 24.5,8 24.5,8 24.5,8 24.5,8 				"/>
				<polygon class="st1" points="23.4,6.2 23.4,6.2 23.4,6.2 21.4,6.2 21.4,6.2 21.4,6.2 23.4,6.2 23.4,6.2 24.4,8 24.4,8 24.4,7.9 
					24.5,8 24.5,8 24.4,7.9 23.9,7.1 23.4,6.2 				"/>
				<polygon class="st1" points="23.4,9.8 24.4,8 24.4,8 23.4,9.8 				"/>
				<polygon class="st1" points="24.5,11.6 24.5,11.6 24.5,11.6 24.5,11.6 24.5,11.6 25,10.7 25,10.6 24.4,11.5 				"/>
				<polygon class="st1" points="23.4,9.8 24.4,11.6 24.4,11.6 23.4,9.8 				"/>
				<polygon class="st1" points="24.4,11.5 24.4,11.5 23.4,9.8 23.4,9.8 				"/>
				<polygon class="st1" points="24.5,8 24.5,8 24.3,8.4 24.4,8.1 25,9 25,8.9 25,8.9 				"/>
				<polygon class="st1" points="24.5,8 24.4,7.9 24.4,8 				"/>
				<polygon class="st1" points="21.9,8.8 22.3,8 22.3,8 22.3,8 				"/>
				<polygon class="st1" points="22.3,8.1 21.4,9.8 21.4,9.8 				"/>
				<polygon class="st1" points="24.4,8 24.4,8 24.4,8 22.4,8 22.4,8 22.4,8 22.4,8 24.4,8 24.4,8 23.4,9.8 23.4,9.8 23.4,9.8 
					23.4,9.8 23.4,9.8 24.3,8.4 24.5,8 24.5,8 24.5,8 24.5,8 24.5,8 				"/>
				<polygon class="st1" points="21.4,9.8 22.4,11.6 22.4,11.6 21.4,9.8 				"/>
				<polygon class="st1" points="21.4,9.8 21.4,9.8 21.4,9.8 23.4,9.8 23.4,9.8 24.4,11.6 24.4,11.6 24.4,11.5 23.4,9.8 23.4,9.8 
					23.4,9.8 23.4,9.8 23.4,9.8 				"/>
				<polygon class="st1" points="24.5,15.2 24.5,15.2 24.5,15.2 24.5,15.2 24.5,15.2 25,14.3 25,14.2 24.4,15.1 				"/>
				<polygon class="st1" points="24.4,15.1 24.4,15.1 23.4,13.4 23.4,13.4 				"/>
				<polygon class="st1" points="24.4,15.2 24.4,15.2 23.5,13.6 				"/>
				<polygon class="st1" points="23.4,13.4 24.4,11.6 24.4,11.6 23.4,13.4 				"/>
				<polygon class="st1" points="24.5,11.6 24.5,11.6 24.3,11.8 24.4,11.7 25,12.6 25,12.5 24.5,11.6 				"/>
				<polygon class="st1" points="24.4,11.6 24.5,11.6 24.4,11.5 24.4,11.5 				"/>
				<polygon class="st1" points="21.3,13.3 22.3,11.6 22.3,11.6 21.3,13.3 				"/>
				<polygon class="st1" points="24.4,11.6 24.4,11.6 24.4,11.6 22.4,11.6 22.4,11.6 22.4,11.6 21.4,13.4 21.4,13.4 22.4,11.6 
					24.4,11.6 24.4,11.6 23.4,13.4 23.4,13.4 23.4,13.4 23.4,13.4 23.4,13.4 24.3,11.8 24.5,11.6 24.5,11.6 24.5,11.6 				"/>
				<polygon class="st1" points="21.4,13.4 22.4,15.2 22.4,15.2 21.4,13.4 				"/>
				<polygon class="st1" points="21.3,13.5 21.3,13.5 21.7,14.1 				"/>
				<polygon class="st1" points="21.4,13.4 23.4,13.4 23.5,13.6 24.4,15.2 24.4,15.2 24.4,15.1 23.4,13.4 23.4,13.4 23.4,13.4 
					23.4,13.4 23.4,13.4 21.4,13.4 21.4,13.4 				"/>
				<polygon class="st1" points="24.4,18.8 24.4,18.8 23.6,17.5 				"/>
				<polygon class="st1" points="24.4,18.7 24.4,18.7 23.4,17 23.4,17 				"/>
				<polygon class="st1" points="24.4,15.2 24.4,15.2 23.5,16.8 				"/>
				<polygon class="st1" points="24.5,18.8 24.5,18.8 24.5,18.8 24.5,18.8 24.5,18.8 25,17.9 25,17.8 24.4,18.7 				"/>
				<polygon class="st1" points="24.5,15.2 24.5,15.2 24.4,15.3 25,16.2 25,16.1 24.5,15.2 				"/>
				<polygon class="st1" points="24.4,15.2 24.5,15.2 24.4,15.1 24.4,15.1 				"/>
				<polygon class="st1" points="22.3,15.2 22.3,15.2 21.9,15.9 				"/>
				<polygon class="st1" points="24.4,15.2 24.4,15.2 24.4,15.2 22.4,15.2 22.4,15.2 22.4,15.2 22.4,15.2 24.4,15.2 24.4,15.2 
					23.5,16.8 23.4,17 23.4,17 23.4,17 23.4,17 23.4,17 24.4,15.3 24.4,15.3 24.5,15.2 24.5,15.2 24.5,15.2 				"/>
				<polygon class="st1" points="22.4,18.8 22.4,18.8 22.1,18.2 				"/>
				<polygon class="st1" points="22.3,18.8 22.1,18.4 22.3,18.8 				"/>
				<polygon class="st1" points="21.4,17 21.4,17 23.4,17 23.6,17.5 24.4,18.8 24.4,18.8 24.4,18.7 23.4,17 23.4,17 23.4,17 
					23.4,17 21.4,17 				"/>
				<polygon class="st1" points="24.4,22.3 24.4,22.3 23.4,20.6 23.4,20.6 				"/>
				<polygon class="st1" points="24.5,22.4 24.5,22.4 25,21.5 25,21.4 24.4,22.3 				"/>
				<polygon class="st1" points="23.4,20.6 24.4,18.8 24.4,18.8 23.4,20.6 				"/>
				<polygon class="st1" points="24.4,22.4 24.4,22.4 24.1,21.9 				"/>
				<polygon class="st1" points="24.5,18.8 24.5,18.8 23.7,20.1 24.4,18.9 25,19.8 25,19.7 24.5,18.8 				"/>
				<polygon class="st1" points="24.4,18.8 24.5,18.8 24.4,18.7 24.4,18.7 				"/>
				<polygon class="st1" points="21.3,20.5 21.3,20.5 22.3,18.8 22.3,18.8 22.3,18.8 				"/>
				<polygon class="st1" points="24.4,18.8 24.4,18.8 24.4,18.8 22.4,18.8 22.4,18.8 22.4,18.8 21.5,20.3 22.4,18.8 24.4,18.8 
					24.4,18.8 23.4,20.6 23.4,20.6 23.4,20.6 23.4,20.6 23.4,20.6 23.7,20.1 24.5,18.8 24.5,18.8 24.5,18.8 				"/>
				<polygon class="st1" points="21.4,20.6 22.4,22.3 21.4,20.6 				"/>
				<polygon class="st1" points="21.4,20.6 21.4,20.6 21.4,20.6 23.4,20.6 24.1,21.9 24.4,22.4 24.4,22.4 24.4,22.3 23.4,20.6 
					23.4,20.6 23.4,20.6 23.4,20.6 23.4,20.6 				"/>
				<polygon class="st1" points="23.4,24.2 23.8,25 23.8,25 23.4,24.2 				"/>
				<polygon class="st1" points="23.7,24.7 23.4,24.2 23.5,24.1 23.4,24.2 				"/>
				<polygon class="st1" points="24.4,22.4 24.4,22.4 23.5,24 				"/>
				<polygon class="st1" points="24.5,22.4 24.4,22.5 25,23.4 25,23.3 24.5,22.4 				"/>
				<polygon class="st1" points="25,25 25,25 25,25 				"/>
				<polygon class="st1" points="24.4,22.4 24.5,22.4 24.4,22.3 24.4,22.3 				"/>
				<polygon class="st1" points="24.4,22.4 24.4,22.4 24.4,22.4 22.4,22.4 22.4,22.4 21.4,24.2 21.4,24.2 22.4,22.4 24.4,22.4 
					24.4,22.4 23.5,24 23.4,24.2 23.4,24.2 23.4,24.2 23.4,24.2 23.5,24.1 24.4,22.5 24.5,22.4 24.5,22.4 24.5,22.4 24.5,22.4 				
					"/>
				<polygon class="st1" points="21.8,25 21.8,25 21.5,24.5 				"/>
				<polygon class="st1" points="23.4,24.2 23.4,24.2 23.4,24.2 23.4,24.2 21.4,24.2 21.4,24.2 21.4,24.2 23.4,24.2 23.4,24.2 
					23.8,25 23.9,25 23.7,24.7 				"/>
				<polygon class="st1" points="20.7,0 20.7,0 20.6,0.2 				"/>
				<polygon class="st1" points="21.3,2.6 20.3,0.8 20.3,0.8 21.3,2.6 				"/>
				<polygon class="st1" points="21.3,2.5 20.3,0.8 20.5,0.6 20.3,0.8 21.3,2.5 				"/>
				<polygon class="st1" points="22.3,0.8 22,1.3 21.3,2.5 21.4,2.6 21.4,2.6 21.4,2.6 21.4,2.6 21.4,2.6 22.4,0.8 22.4,0.8 
					22.4,0.8 22,0 21.9,0 22.3,0.8 				"/>
				<polygon class="st1" points="18.3,0.8 18.7,0 18.7,0 18.3,0.8 				"/>
				<polygon class="st1" points="20.3,0.8 20.3,0.8 20.3,0.8 20.3,0.8 20.5,0.6 20.8,0 20.7,0 20.6,0.2 				"/>
				<polygon class="st1" points="19.3,2.6 19.3,2.6 18.3,0.8 18.3,0.8 				"/>
				<polygon class="st1" points="18.3,0.8 20.3,0.8 20.3,0.8 21.3,2.6 21.3,2.6 21.3,2.5 20.3,0.8 20.3,0.8 20.3,0.8 20.3,0.8 
					18.3,0.8 18.3,0.8 				"/>
				<polygon class="st1" points="21.3,6.2 21.3,6.2 20.8,5.3 				"/>
				<polygon class="st1" points="21.3,6.1 20.3,4.4 20.3,4.4 21.3,6.1 				"/>
				<polygon class="st1" points="21.3,2.6 21.3,2.6 20.6,3.8 				"/>
				<polygon class="st1" points="21.3,2.6 21.4,2.6 21.3,2.5 21.3,2.5 				"/>
				<polygon class="st1" points="21.2,3 21.3,2.7 22.3,4.3 22.3,4.4 22.3,4.4 22.1,4.8 21.3,6.1 21.4,6.2 21.4,6.2 22.4,4.4 
					22.4,4.4 21.7,3.2 21.4,2.6 21.4,2.6 21.4,2.6 				"/>
				<polygon class="st1" points="21.3,2.6 21.3,2.6 21.3,2.6 19.3,2.6 19.3,2.6 19.3,2.6 18.4,4.1 19.3,2.6 21.3,2.6 21.3,2.6 
					20.6,3.8 20.3,4.4 20.3,4.4 20.3,4.4 20.3,4.4 20.3,4.4 21.2,3 21.4,2.6 21.4,2.6 21.4,2.6 				"/>
				<polygon class="st1" points="18.3,4.4 19.3,6.2 19.3,6.2 18.3,4.4 				"/>
				<polygon class="st1" points="18.3,4.4 18.3,4.4 20.3,4.4 20.8,5.3 21.3,6.2 21.3,6.2 21.3,6.1 20.3,4.4 20.3,4.4 20.3,4.4 
					20.3,4.4 18.3,4.4 				"/>
				<polygon class="st1" points="21.3,6.2 21.3,6.2 20.5,7.6 				"/>
				<polygon class="st1" points="20.3,8 20.5,7.8 20.3,8 21.1,9.4 				"/>
				<polygon class="st1" points="21.3,9.8 20.3,8 20.3,8 21.3,9.8 				"/>
				<polygon class="st1" points="21.3,6.3 22.3,7.9 22.3,8 22.3,8 21.9,8.8 21.3,9.7 21.4,9.8 21.4,9.8 22.3,8.1 22.4,8 22.4,8 
					22.4,8 22,7.3 21.4,6.2 21.4,6.2 				"/>
				<polygon class="st1" points="21.3,6.2 21.4,6.2 21.3,6.1 21.3,6.1 				"/>
				<polygon class="st1" points="21.3,6.2 21.3,6.2 21.3,6.2 19.3,6.2 19.3,6.2 19.3,6.2 18.6,7.5 19.3,6.2 21.3,6.2 21.3,6.2 
					20.5,7.6 20.3,8 20.3,8 20.3,8 20.3,8 20.5,7.8 21.3,6.3 21.4,6.2 21.4,6.2 21.4,6.2 21.4,6.2 				"/>
				<polygon class="st1" points="19.3,9.8 19.3,9.8 18.3,8 18.3,8 				"/>
				<polygon class="st1" points="21.4,9.8 21.4,9.8 21.4,9.8 21.4,9.8 				"/>
				<polygon class="st1" points="18.3,8 18.3,8 20.3,8 20.3,8 21.3,9.8 21.3,9.8 21.3,9.7 21.4,9.8 21.4,9.8 21.3,9.7 21.1,9.4 
					20.3,8 20.3,8 20.3,8 20.3,8 18.3,8 				"/>
				<polygon class="st1" points="20.3,11.6 20.3,11.6 20.8,12.5 				"/>
				<polygon class="st1" points="21.3,9.8 21.3,9.8 20.8,10.7 				"/>
				<polygon class="st1" points="21.4,9.8 21.3,9.9 22.3,11.6 22.3,11.6 21.3,13.3 21.4,13.4 21.4,13.4 22.4,11.6 22.4,11.6 
					21.4,9.8 				"/>
				<polygon class="st1" points="21.4,9.8 21.3,9.7 21.3,9.8 				"/>
				<polygon class="st1" points="21.3,9.8 21.3,9.8 21.3,9.8 19.3,9.8 19.3,9.8 19.3,9.8 18.5,11.1 19.3,9.8 21.3,9.8 21.3,9.8 
					20.8,10.7 20.3,11.6 20.3,11.6 20.3,11.6 20.3,11.6 20.3,11.6 21.3,9.9 21.4,9.8 21.4,9.8 21.4,9.8 21.4,9.8 21.4,9.8 21.4,9.8 
									"/>
				<polygon class="st1" points="20.8,12.5 20.3,11.6 20.3,11.6 20.3,11.6 20.3,11.6 18.3,11.6 18.3,11.6 18.3,11.6 20.3,11.6 
					21.3,13.4 21.3,13.4 21.3,13.3 21.4,13.4 21.4,13.4 21.3,13.3 21.3,13.3 				"/>
				<polygon class="st1" points="21.4,13.4 21.4,13.4 21.4,13.4 21.4,13.4 				"/>
				<polygon class="st1" points="21.3,16.9 20.3,15.2 20.4,15.2 20.3,15.2 21.3,16.9 				"/>
				<polygon class="st1" points="21.3,17 20.3,15.2 20.3,15.2 21.3,17 				"/>
				<polygon class="st1" points="21.4,13.4 21.3,13.5 21.7,14.1 22.3,15.2 22.3,15.2 21.9,15.9 21.3,16.9 21.4,17 21.4,17 21.4,17 
					21.4,17 21.4,17 22.4,15.2 22.4,15.2 22.4,15.2 21.4,13.4 				"/>
				<polygon class="st1" points="21.3,13.4 21.4,13.4 21.3,13.3 				"/>
				<polygon class="st1" points="21.4,13.4 21.3,13.4 21.3,13.4 19.3,13.4 19.3,13.4 18.4,14.9 18.8,14.2 19.3,13.4 21.3,13.4 
					20.3,15.2 20.3,15.2 20.3,15.2 20.3,15.2 20.4,15.2 21.3,13.5 21.3,13.5 21.4,13.4 21.4,13.4 21.4,13.4 21.4,13.4 21.4,13.4 
									"/>
				<polygon class="st1" points="19.3,17 19.3,17 18.4,15.5 				"/>
				<polygon class="st1" points="18.3,15.2 18.3,15.2 18.3,15.2 20.3,15.2 20.3,15.2 21.3,17 21.3,17 21.3,16.9 20.3,15.2 
					20.3,15.2 20.3,15.2 20.3,15.2 18.3,15.2 				"/>
				<polygon class="st1" points="20.3,18.8 20.3,18.8 21.1,20.1 				"/>
				<polygon class="st1" points="21.3,20.6 21.3,20.6 20.8,19.7 				"/>
				<polygon class="st1" points="21.3,17 21.3,17 20.5,18.3 				"/>
				<polygon class="st1" points="21.4,17 21.4,17 21.4,17 20.8,18 21.3,17.1 22.1,18.4 22.3,18.8 22.3,18.8 21.3,20.5 21.4,20.6 
					21.4,20.6 21.4,20.6 21.4,20.6 21.4,20.6 21.5,20.3 22.4,18.8 22.4,18.8 22.1,18.2 				"/>
				<polygon class="st1" points="21.3,17 21.4,17 21.3,16.9 21.3,16.9 				"/>
				<polygon class="st1" points="21.3,17 21.3,17 21.3,17 19.3,17 19.3,17 19.3,17 18.8,17.9 19.3,17 21.3,17 21.3,17 20.5,18.3 
					20.3,18.8 20.3,18.8 20.3,18.8 20.3,18.8 20.3,18.8 20.8,18 21.4,17 21.4,17 21.4,17 				"/>
				<polygon class="st1" points="21.1,20.1 20.3,18.8 20.3,18.8 20.3,18.8 20.3,18.8 18.3,18.8 18.3,18.8 18.3,18.8 20.3,18.8 
					20.8,19.7 21.3,20.6 21.3,20.6 21.3,20.5 21.4,20.6 21.4,20.6 21.3,20.5 21.3,20.5 				"/>
				<polygon class="st1" points="21.4,20.6 21.4,20.6 21.4,20.6 21.4,20.6 21.4,20.6 				"/>
				<polygon class="st1" points="20.3,22.4 20.3,22.4 20.7,21.6 				"/>
				<polygon class="st1" points="20.3,22.4 20.3,22.4 20.9,23.5 				"/>
				<polygon class="st1" points="22.4,22.4 22.4,22.4 22.4,22.3 21.4,20.6 21.4,20.6 20.3,22.4 21.3,24.1 21.3,24.1 20.3,22.4 
					21.3,20.7 22.3,22.4 21.3,24.1 21.4,24.2 21.4,24.2 				"/>
				<polygon class="st1" points="21.3,20.6 21.4,20.6 21.3,20.5 				"/>
				<polygon class="st1" points="21.4,20.6 21.4,20.6 21.4,20.6 21.3,20.6 21.3,20.6 21.3,20.6 19.3,20.6 19.3,20.6 18.3,22.4 
					18.3,22.4 19.3,20.6 21.3,20.6 20.7,21.6 20.3,22.4 20.3,22.4 20.3,22.4 20.3,22.4 21.4,20.6 21.4,20.6 				"/>
				<polygon class="st1" points="19.3,24.2 19.3,24.2 18.4,22.6 				"/>
				<polygon class="st1" points="20.3,22.4 20.3,22.4 20.3,22.4 20.3,22.4 20.3,22.4 18.3,22.4 18.3,22.4 18.3,22.4 20.3,22.4 
					20.3,22.4 20.9,23.5 21.3,24.2 21.3,24.2 21.3,24.1 				"/>
				<polygon class="st1" points="21.3,24.2 20.8,25 20.8,25 21.3,24.2 				"/>
				<polygon class="st1" points="21.4,24.2 21.4,24.2 21.3,24.3 21.8,25 21.8,25 21.5,24.5 				"/>
				<polygon class="st1" points="21.3,24.1 21.3,24.1 21.3,24.2 21.4,24.2 				"/>
				<polygon class="st1" points="18.8,25 18.8,25 19.3,24.3 				"/>
				<polygon class="st1" points="21.4,24.2 21.4,24.2 21.4,24.2 21.4,24.2 21.3,24.2 21.3,24.2 19.3,24.2 19.3,24.2 19.3,24.2 
					19.3,24.2 19.3,24.2 21.3,24.2 21.3,24.2 20.8,25 20.9,25 21.3,24.3 				"/>
				<polygon class="st1" points="18.2,0.8 17.7,0 17.7,0 18.2,0.8 				"/>
				<polygon class="st1" points="18.2,0.8 18.3,0.8 18.7,0 18.7,0 18.2,0.7 				"/>
				<polygon class="st1" points="15.7,0 15.7,0 15.8,0.3 				"/>
				<polygon class="st1" points="18.3,0.8 18.3,0.8 18.3,0.8 18.3,0.8 				"/>
				<polygon class="st1" points="18.2,0.8 18.2,0.7 18.2,0.8 18.2,0.8 18.2,0.7 17.8,0 17.7,0 18.2,0.8 				"/>
				<polygon class="st1" points="18.2,0.8 17.2,2.6 17.2,2.6 18.2,0.8 				"/>
				<polygon class="st1" points="18.2,4.4 17.2,2.6 17.2,2.6 18.2,4.4 				"/>
				<polygon class="st1" points="18.3,4.4 18.3,4.4 18.3,4.4 18.3,4.4 18.4,4.1 19.3,2.6 19.3,2.6 18.3,0.8 18.3,0.8 18.2,0.9 
					19.2,2.6 18.2,4.3 18.2,4.4 				"/>
				<polygon class="st1" points="18.2,0.8 18.2,0.7 18.2,0.8 				"/>
				<polygon class="st1" points="15.1,2.5 15.1,2.5 15.9,1.2 				"/>
				<polygon class="st1" points="18.2,0.8 17.2,2.6 17.2,2.6 17.2,2.6 18.2,0.9 18.3,0.8 18.3,0.8 18.3,0.8 18.3,0.8 18.2,0.8 
					18.2,0.8 18.2,0.8 18.2,0.8 18.2,0.8 16.2,0.8 16.2,0.8 16.2,0.8 18.2,0.8 				"/>
				<polygon class="st1" points="15.1,2.7 15.1,2.7 15.9,4.1 				"/>
				<polygon class="st1" points="18.3,4.4 18.3,4.4 18.3,4.4 18.3,4.4 18.3,4.4 				"/>
				<polygon class="st1" points="17.2,2.6 17.2,2.6 18.2,4.4 18.2,4.4 18.2,4.3 18.2,4.4 18.2,4.4 18.2,4.3 17.2,2.6 17.2,2.6 
					17.2,2.6 17.2,2.6 15.2,2.6 15.2,2.6 15.2,2.6 				"/>
				<polygon class="st1" points="18.2,8 17.2,6.2 17.2,6.2 18.2,8 				"/>
				<polygon class="st1" points="18.2,4.4 17.2,6.2 17.2,6.2 18.2,4.4 				"/>
				<polygon class="st1" points="18.3,4.4 18,4.8 18.2,4.5 19.2,6.2 18.2,7.9 18.2,8 18.3,8 18.3,8 18.3,8 18.3,8 18.6,7.5 
					19.3,6.2 19.3,6.2 18.3,4.4 				"/>
				<polygon class="st1" points="18.2,4.4 18.2,4.3 18.2,4.4 				"/>
				<polygon class="st1" points="15.1,6.1 15.1,6.1 15.9,4.9 				"/>
				<polygon class="st1" points="18.2,4.4 17.2,6.2 17.2,6.2 17.2,6.2 18,4.8 18.3,4.4 18.3,4.4 18.3,4.4 18.2,4.4 18.2,4.4 
					18.2,4.4 18.2,4.4 18.2,4.4 16.2,4.4 16.2,4.4 16.2,4.4 18.2,4.4 				"/>
				<polygon class="st1" points="15.1,6.3 15.1,6.3 15.8,7.5 				"/>
				<polygon class="st1" points="18.3,8 18.3,8 18.3,8 18.3,8 18.3,8 				"/>
				<polygon class="st1" points="17.2,6.2 17.2,6.2 18.2,8 18.2,8 18.2,7.9 18.2,8 18.2,8 18.2,7.9 17.2,6.2 17.2,6.2 17.2,6.2 
					17.2,6.2 15.2,6.2 15.2,6.2 15.2,6.2 				"/>
				<polygon class="st1" points="18.2,8 17.2,9.8 17.2,9.8 18.2,8 				"/>
				<polygon class="st1" points="18,11.2 18.2,11.5 18.2,11.5 				"/>
				<polygon class="st1" points="18.2,11.6 17.2,9.8 17.2,9.8 18.2,11.6 				"/>
				<polygon class="st1" points="18.3,8 18,8.5 18.2,8.1 19.2,9.8 18.2,11.5 18.2,11.6 18.3,11.6 18.3,11.6 18.3,11.6 18.3,11.6 
					18.5,11.1 19.3,9.8 19.3,9.8 18.3,8 				"/>
				<polygon class="st1" points="18.2,8 18.2,7.9 18.2,8 				"/>
				<polygon class="st1" points="15.1,9.7 15.1,9.7 16,8.3 				"/>
				<polygon class="st1" points="18.2,8 17.2,9.8 17.2,9.8 17.2,9.8 18,8.5 18.3,8 18.3,8 18.3,8 18.2,8 18.2,8 18.2,8 18.2,8 
					18.2,8 16.2,8 16.2,8 16.2,8 18.2,8 				"/>
				<polygon class="st1" points="16.1,11.6 15.1,9.9 15.1,9.9 16.1,11.6 				"/>
				<polygon class="st1" points="17.2,9.8 17.2,9.8 18.2,11.6 18.2,11.6 18.2,11.5 18,11.2 17.2,9.8 17.2,9.8 17.2,9.8 17.2,9.8 
					15.2,9.8 15.2,9.8 15.2,9.8 				"/>
				<polygon class="st1" points="17.2,13.4 18.2,11.6 18.2,11.6 17.2,13.4 				"/>
				<polygon class="st1" points="17.2,13.4 18.2,15.1 18.2,15.1 17.2,13.4 				"/>
				<polygon class="st1" points="17.2,13.4 18.2,15.2 18.2,15.2 17.2,13.4 				"/>
				<polygon class="st1" points="18.3,11.6 18.3,11.6 18.1,11.9 18.2,11.7 19.2,13.4 18.2,15.1 18.2,15.2 18.3,15.2 18.3,15.2 
					18.3,15.2 18.3,15.2 18.4,14.9 19.3,13.4 19.3,13.4 18.3,11.6 				"/>
				<polygon class="st1" points="18.2,11.6 18.2,11.5 18.2,11.5 18.2,11.6 				"/>
				<polygon class="st1" points="15.1,13.3 15.1,13.3 16,11.8 				"/>
				<polygon class="st1" points="18.2,11.6 18.2,11.6 18.2,11.6 18.2,11.6 16.2,11.6 16.2,11.6 15.2,13.4 15.2,13.4 16.2,11.6 
					18.2,11.6 18.2,11.6 17.2,13.4 17.2,13.4 17.2,13.4 17.2,13.4 18.1,11.9 18.3,11.6 18.3,11.6 				"/>
				<polygon class="st1" points="15.2,13.4 16.2,15.2 16.2,15.2 15.2,13.4 				"/>
				<polygon class="st1" points="15.9,14.9 15.1,13.5 15.1,13.5 				"/>
				<polygon class="st1" points="15.2,13.4 17.2,13.4 17.2,13.4 18.2,15.2 18.2,15.2 18.2,15.1 17.2,13.4 17.2,13.4 17.2,13.4 
					17.2,13.4 15.2,13.4 15.2,13.4 				"/>
				<polygon class="st1" points="17.2,17 18.2,18.8 18.2,18.8 17.2,17 				"/>
				<polygon class="st1" points="18.8,17.9 19.3,17 19.3,17 18.4,15.5 18.3,15.2 18.3,15.2 18.3,15.2 18.2,15.3 18.2,15.3 
					18.2,15.3 19.2,17 18.2,18.7 18.2,18.8 18.3,18.8 18.3,18.8 18.3,18.8 18.3,18.8 				"/>
				<polygon class="st1" points="17.2,17 18.2,15.2 18.2,15.2 17.2,17 				"/>
				<polygon class="st1" points="18.2,18.7 18.2,18.7 18.1,18.6 				"/>
				<polygon class="st1" points="18.2,15.2 18.2,15.2 18.2,15.1 18.2,15.1 				"/>
				<polygon class="st1" points="16.1,15.2 16.1,15.2 15.4,16.5 				"/>
				<polygon class="st1" points="18.2,15.2 18.2,15.2 18.2,15.2 16.2,15.2 16.2,15.2 16.2,15.2 16.2,15.2 18.2,15.2 18.2,15.2 
					17.2,17 17.2,17 17.2,17 18.2,15.3 18.3,15.2 18.3,15.2 18.2,15.2 				"/>
				<polygon class="st1" points="16.1,18.8 15.1,17.1 15.1,17.1 16.1,18.8 				"/>
				<polygon class="st1" points="16.2,18.8 16.2,18.8 16.2,18.7 				"/>
				<polygon class="st1" points="18.1,18.6 17.2,17 17.2,17 17.2,17 17.2,17 15.2,17 15.2,17 15.2,17 17.2,17 17.2,17 18.2,18.8 
					18.2,18.8 18.2,18.7 				"/>
				<polygon class="st1" points="17.2,20.6 18.2,22.3 18.2,22.3 17.2,20.6 				"/>
				<polygon class="st1" points="17.2,20.6 18.2,22.4 18.2,22.4 17.2,20.6 				"/>
				<polygon class="st1" points="18.2,18.8 17.2,20.6 17.2,20.6 18.2,18.8 				"/>
				<polygon class="st1" points="19.3,20.6 19.3,20.6 18.3,18.8 18.3,18.8 18.3,18.8 17.5,20.1 18.2,18.9 19.2,20.6 18.2,22.3 
					18.2,22.4 18.3,22.4 				"/>
				<polygon class="st1" points="18.2,18.8 18.2,18.8 18.2,18.7 18.2,18.7 				"/>
				<polygon class="st1" points="18.2,18.8 18.2,18.8 18.2,18.8 18.2,18.8 16.2,18.8 16.2,18.8 16.2,18.8 16.1,18.9 16.2,18.8 
					18.2,18.8 18.2,18.8 17.2,20.6 17.2,20.6 17.2,20.6 17.2,20.6 17.5,20.1 18.3,18.8 18.3,18.8 				"/>
				<polygon class="st1" points="16.1,18.8 16.1,18.8 16.1,18.8 15.1,20.5 15.1,20.5 				"/>
				<polygon class="st1" points="15.2,20.6 15.2,20.7 15.2,20.6 				"/>
				<polygon class="st1" points="15.1,20.7 15.1,20.7 15.8,21.8 				"/>
				<polygon class="st1" points="17.2,20.6 17.2,20.6 17.2,20.6 17.2,20.6 15.2,20.6 15.2,20.6 15.2,20.6 17.2,20.6 17.2,20.6 
					18.2,22.4 18.2,22.4 18.2,22.3 				"/>
				<polygon class="st1" points="17.2,24.2 17.3,24.1 17.2,24.2 				"/>
				<polygon class="st1" points="17.2,24.2 17.6,25 17.6,25 17.2,24.2 				"/>
				<polygon class="st1" points="18.2,22.4 17.2,24.2 17.2,24.2 18.2,22.4 				"/>
				<polygon class="st1" points="19.3,24.2 19.3,24.2 19.3,24.2 18.4,22.6 18.3,22.4 18.3,22.4 18.2,22.5 19.2,24.2 18.8,25 
					18.8,25 19.3,24.3 				"/>
				<polygon class="st1" points="18.2,22.3 18.2,22.3 18.2,22.4 18.2,22.4 				"/>
				<polygon class="st1" points="15.1,24.1 15.1,24.1 15.8,23 				"/>
				<polygon class="st1" points="18.3,22.4 18.2,22.4 18.2,22.4 18.2,22.4 18.2,22.4 16.2,22.4 16.2,22.4 16.2,22.4 18.2,22.4 
					18.2,22.4 17.2,24.2 17.2,24.2 17.2,24.2 17.3,24.1 18.2,22.5 18.3,22.4 18.3,22.4 				"/>
				<polygon class="st1" points="15.1,24.3 15.6,25 15.6,25 15.1,24.3 				"/>
				<polygon class="st1" points="17.2,24.2 17.2,24.2 17.2,24.2 17.2,24.2 15.2,24.2 15.2,24.2 15.2,24.2 17.2,24.2 17.2,24.2 
					17.6,25 17.7,25 17.2,24.2 				"/>
				<polygon class="st1" points="15.1,2.5 15.1,2.5 15.1,2.5 14.1,0.8 14.6,0 14.6,0 14.1,0.8 				"/>
				<polygon class="st1" points="14.1,0.8 14.1,0.8 14.5,1.5 				"/>
				<polygon class="st1" points="16.1,0.8 15.9,1.2 15.1,2.5 15.2,2.6 15.2,2.6 15.2,2.6 15.2,2.6 15.2,2.6 16.2,0.8 16.2,0.8 
					16.2,0.8 15.8,0 15.7,0 15.8,0.3 				"/>
				<polygon class="st1" points="14.3,0.4 14.1,0.8 14.1,0.8 				"/>
				<polygon class="st1" points="12.1,0.8 12.1,0.8 12.4,0.2 12.5,0 12.5,0 12.1,0.8 				"/>
				<polygon class="st1" points="14.1,0.8 14.1,0.8 14.1,0.8 14.6,0 14.5,0 14.3,0.4 				"/>
				<polygon class="st1" points="12.1,0.8 12.1,0.8 13.1,2.6 13.1,2.6 12.1,0.8 14.1,0.8 14.1,0.8 14.5,1.5 15.1,2.6 15.1,2.6 
					15.1,2.5 14.1,0.8 14.1,0.8 14.1,0.8 14.1,0.8 12.1,0.8 12.1,0.8 12.1,0.8 12.1,0.8 				"/>
				<polygon class="st1" points="14.1,4.4 14.1,4.4 14.2,4.7 				"/>
				<polygon class="st1" points="14.1,4.4 14.3,4 14.1,4.4 				"/>
				<polygon class="st1" points="15.2,2.6 15.1,2.5 15.1,2.5 15.1,2.6 				"/>
				<polygon class="st1" points="14.1,4.4 15.1,6.1 15.1,6.1 15.1,6.1 14.1,4.4 15.1,2.7 15.1,2.7 15.9,4.1 16.1,4.4 15.9,4.9 
					15.1,6.1 15.2,6.2 15.2,6.2 15.2,6.2 15.2,6.2 15.2,6.2 16.2,4.4 16.2,4.4 16.2,4.4 15.2,2.6 15.2,2.6 15.2,2.6 				"/>
				<polygon class="st1" points="15.1,2.6 15.1,2.6 13.1,2.6 13.1,2.6 13.1,2.6 12.1,4.4 12.1,4.4 12.4,3.8 13.1,2.6 15.1,2.6 
					14.3,4 14.1,4.4 14.1,4.4 14.1,4.4 15.2,2.6 15.2,2.6 15.2,2.6 				"/>
				<polygon class="st1" points="12.1,4.4 12.1,4.4 13.1,6.2 13.1,6.2 12.4,5 12.1,4.4 12.1,4.4 14.1,4.4 14.1,4.4 14.2,4.7 
					15.1,6.2 15.1,6.2 15.1,6.1 14.1,4.4 14.1,4.4 14.1,4.4 14.1,4.4 12.1,4.4 12.1,4.4 12.1,4.4 12.1,4.4 				"/>
				<polygon class="st1" points="14.1,8 14.1,8 14.4,8.6 				"/>
				<polygon class="st1" points="14.1,8 14.4,7.5 14.1,8 				"/>
				<polygon class="st1" points="15.2,6.2 15.1,6.1 15.1,6.1 15.1,6.2 				"/>
				<polygon class="st1" points="14.1,8 15.1,9.7 15.1,9.7 15.1,9.7 14.1,8 15.1,6.3 15.1,6.3 15.8,7.5 16.1,8 16,8.3 15.1,9.7 
					15.2,9.8 15.2,9.8 15.2,9.8 15.2,9.8 15.2,9.8 16.2,8 16.2,8 16.2,8 15.2,6.2 15.2,6.2 15.2,6.2 				"/>
				<polygon class="st1" points="15.1,6.2 15.1,6.2 13.1,6.2 13.1,6.2 13.1,6.2 12.1,8 12.1,8 12.6,7.1 13.1,6.2 15.1,6.2 14.4,7.5 
					14.1,8 14.1,8 14.1,8 15.2,6.2 15.2,6.2 15.2,6.2 				"/>
				<polygon class="st1" points="12.1,8 12.1,8 13.1,9.8 13.1,9.8 12.1,8 14.1,8 14.1,8 14.4,8.6 15.1,9.8 15.1,9.8 15.1,9.7 
					14.1,8 14.1,8 14.1,8 14.1,8 12.1,8 12.1,8 12.1,8 12.1,8 				"/>
				<polygon class="st1" points="14.1,11.6 14.2,11.3 14.1,11.6 				"/>
				<polygon class="st1" points="15.2,9.8 15.1,9.7 15.1,9.7 15.1,9.8 				"/>
				<polygon class="st1" points="14.1,11.6 15.1,13.3 15.1,13.3 15.1,13.3 14.1,11.6 15.1,9.9 15.1,9.9 16.1,11.6 16.1,11.6 
					16,11.8 15.1,13.3 15.2,13.4 15.2,13.4 16.2,11.6 16.2,11.6 15.2,9.8 15.2,9.8 15.2,9.8 				"/>
				<polygon class="st1" points="15.1,9.8 15.1,9.8 13.1,9.8 13.1,9.8 13.1,9.8 12.1,11.6 12.1,11.6 12.6,10.7 13.1,9.8 15.1,9.8 
					14.2,11.3 14.1,11.6 14.1,11.6 14.1,11.6 15.2,9.8 15.2,9.8 15.2,9.8 				"/>
				<polygon class="st1" points="15.2,13.4 15.2,13.4 15.2,13.4 15.2,13.4 				"/>
				<polygon class="st1" points="12.7,12.7 12.1,11.6 12.1,11.6 14.1,11.6 15.1,13.4 15.1,13.4 15.1,13.3 14.1,11.6 14.1,11.6 
					14.1,11.6 14.1,11.6 12.1,11.6 12.1,11.6 12.1,11.6 12.1,11.6 				"/>
				<polygon class="st1" points="15.1,16.9 15.1,16.9 14.2,15.3 				"/>
				<polygon class="st1" points="14.1,15.2 14.1,15.2 14.8,14 				"/>
				<polygon class="st1" points="16.2,15.2 16.2,15.2 16.2,15.2 15.2,13.4 15.2,13.4 15.1,13.5 15.9,14.9 16.1,15.2 16.1,15.2 
					15.4,16.5 15.1,16.9 15.2,17 15.2,17 15.2,17 15.2,17 15.2,17 				"/>
				<polygon class="st1" points="14.1,15.2 14.1,15.2 14.7,16.3 				"/>
				<polygon class="st1" points="15.2,13.4 15.1,13.3 15.1,13.3 15.1,13.4 				"/>
				<polygon class="st1" points="15.1,13.4 15.1,13.4 13.1,13.4 13.1,13.4 13.1,13.4 12.1,15.2 12.1,15.2 12.8,14 13.1,13.4 
					15.1,13.4 14.1,15.2 14.1,15.2 14.1,15.2 14.8,14 15.1,13.5 15.1,13.5 15.2,13.4 15.2,13.4 15.2,13.4 15.2,13.4 15.2,13.4 				
					"/>
				<polygon class="st1" points="13.1,17 12.1,15.2 14.1,15.2 14.1,15.2 14.7,16.3 15.1,17 15.1,17 15.1,16.9 14.2,15.3 14.1,15.2 
					14.1,15.2 14.1,15.2 14.1,15.2 12.1,15.2 12.1,15.2 12.1,15.2 12.1,15.2 13.1,17 				"/>
				<polygon class="st1" points="15.1,17 15.1,17 14.3,18.4 				"/>
				<polygon class="st1" points="16.2,18.8 16.2,18.8 16.2,18.7 15.2,17 15.2,17 15.2,17 14.1,18.8 15.1,20.5 15.1,20.5 15.1,20.5 
					14.1,18.8 15.1,17.1 15.1,17.1 16.1,18.8 16.1,18.8 15.1,20.5 15.2,20.6 15.2,20.6 15.2,20.6 15.2,20.6 15.2,20.6 16.1,18.9 
									"/>
				<polygon class="st1" points="15.1,17 15.2,17 15.1,16.9 15.1,16.9 				"/>
				<polygon class="st1" points="15.2,17 15.1,17 15.1,17 13.1,17 13.1,17 13.1,17 12.2,18.5 12.4,18.2 13.1,17 15.1,17 15.1,17 
					14.3,18.4 14.1,18.8 14.1,18.8 14.1,18.8 15.2,17 15.2,17 				"/>
				<polygon class="st1" points="15.2,20.6 15.2,20.6 15.2,20.6 15.2,20.6 15.2,20.6 				"/>
				<polygon class="st1" points="14.1,18.8 14.1,18.8 14.1,18.8 12.1,18.8 12.1,18.8 12.1,18.8 13.1,20.5 12.1,18.8 12.1,18.8 
					14.1,18.8 15.1,20.6 15.1,20.6 15.1,20.5 				"/>
				<polygon class="st1" points="14.1,22.4 14.1,22.4 14.3,21.9 				"/>
				<polygon class="st1" points="14.1,22.4 14.1,22.4 14.3,22.9 				"/>
				<polygon class="st1" points="16.2,22.4 16.2,22.4 15.2,20.7 15.2,20.6 15.2,20.6 14.1,22.4 15.1,24.1 15.1,24.1 15.1,24.1 
					14.1,22.4 15.1,20.7 15.1,20.7 15.8,21.8 16.1,22.4 15.8,23 15.1,24.1 15.2,24.2 15.2,24.2 15.2,24.2 15.2,24.2 15.2,24.2 
					16.2,22.4 				"/>
				<polygon class="st1" points="15.1,20.5 15.1,20.6 15.2,20.6 15.1,20.5 				"/>
				<polygon class="st1" points="15.2,20.6 15.2,20.6 15.1,20.6 15.1,20.6 13.1,20.6 13.1,20.6 13.1,20.6 12.1,22.4 12.1,22.4 
					12.1,22.4 13.1,20.6 15.1,20.6 14.3,21.9 14.1,22.4 14.1,22.4 14.1,22.4 15.2,20.6 15.2,20.6 				"/>
				<polygon class="st1" points="14.1,22.4 14.1,22.4 14.1,22.4 14.1,22.4 12.1,22.4 12.1,22.4 12.1,22.4 13.1,24.2 13.1,24.2 
					12.1,22.4 14.1,22.4 14.1,22.4 14.3,22.9 15.1,24.2 15.1,24.2 15.1,24.1 				"/>
				<polygon class="st1" points="15.2,24.2 15.2,24.2 14.7,25 14.7,25 15.1,24.3 15.1,24.3 15.6,25 15.6,25 15.2,24.2 				"/>
				<polygon class="st1" points="15.1,24.1 15.1,24.2 15.2,24.2 15.1,24.1 				"/>
				<polygon class="st1" points="15.2,24.2 15.2,24.2 15.2,24.2 15.1,24.2 15.1,24.2 13.1,24.2 13.1,24.2 13.1,24.2 12.6,25 
					12.6,25 13.1,24.2 13.1,24.2 15.1,24.2 14.6,25 14.7,25 				"/>
				<polygon class="st1" points="12,0.8 12.1,0.8 12.5,0 12.4,0 12,0.7 				"/>
				<polygon class="st1" points="12,0.8 11.5,0 11.5,0 12,0.8 				"/>
				<polygon class="st1" points="9.5,0 9.5,0 9.5,0.1 				"/>
				<polygon class="st1" points="9.5,0 9.5,0 9.6,0.2 				"/>
				<polygon class="st1" points="12.1,0.8 12.1,0.8 12.1,0.8 12.1,0.8 				"/>
				<polygon class="st1" points="12,0.8 12,0.7 12,0.8 12,0.8 12,0.7 11.6,0 11.5,0 12,0.8 				"/>
				<polygon class="st1" points="12,4.4 11,2.7 12,4.4 				"/>
				<polygon class="st1" points="12,4.3 12,4.4 12.1,4.4 12.1,4.4 12.1,4.4 12.1,4.4 13.1,2.6 13.1,2.6 12.1,0.8 12.1,0.8 12,0.9 
					13,2.6 				"/>
				<polygon class="st1" points="12,0.8 12,0.8 11,2.6 11,2.6 				"/>
				<polygon class="st1" points="11,2.6 11,2.6 11.5,3.5 				"/>
				<polygon class="st1" points="12,0.8 12,0.7 12,0.8 				"/>
				<polygon class="st1" points="9.6,1.4 8.9,2.5 8.9,2.5 				"/>
				<polygon class="st1" points="9.5,1.8 9,2.6 9,2.6 				"/>
				<polygon class="st1" points="12,0.8 11,2.6 11,2.6 11,2.6 11,2.6 12,0.9 12.1,0.8 12.1,0.8 12.1,0.8 12.1,0.8 12,0.8 12,0.8 
					12,0.8 12,0.8 12,0.8 10,0.8 10,0.8 10,0.8 12,0.8 				"/>
				<polygon class="st1" points="8.9,2.7 8.9,2.7 9.6,3.8 				"/>
				<polygon class="st1" points="9,2.6 9.6,3.8 9,2.6 				"/>
				<polygon class="st1" points="12.1,4.4 12.1,4.4 12.1,4.4 12.1,4.4 12.1,4.4 				"/>
				<polygon class="st1" points="11,2.6 11,2.7 12,4.4 12,4.4 12,4.3 12,4.4 12,4.4 12,4.3 11.5,3.5 11,2.6 11,2.6 11,2.6 11,2.6 
					9,2.6 9,2.6 9,2.6 				"/>
				<polygon class="st1" points="12,8 11,6.2 11,6.2 12,8 				"/>
				<polygon class="st1" points="12,4.4 11.1,5.9 12,4.4 				"/>
				<polygon class="st1" points="12,4.4 12,4.3 12,4.4 				"/>
				<polygon class="st1" points="12.1,4.4 11,6.2 11,6.2 12,4.5 13,6.2 12,7.9 12,8 12.1,8 12.1,8 12.1,8 12.1,8 13.1,6.2 13.1,6.2 
					12.1,4.4 				"/>
				<polygon class="st1" points="9.7,4.9 9,6.2 9,6.2 				"/>
				<polygon class="st1" points="8.9,6.1 8.9,6.1 9.3,5.5 				"/>
				<polygon class="st1" points="12,4.4 11.1,5.9 11,6.2 11,6.2 11,6.2 12.1,4.4 12.1,4.4 12.1,4.4 12,4.4 12,4.4 12,4.4 12,4.4 
					12,4.4 10,4.4 10,4.4 10,4.4 12,4.4 				"/>
				<polygon class="st1" points="9,6.2 9.4,6.9 9,6.2 				"/>
				<polygon class="st1" points="8.9,6.3 8.9,6.3 9.5,7.2 				"/>
				<polygon class="st1" points="12.1,8 12.1,8 12.1,8 12.1,8 12.1,8 				"/>
				<polygon class="st1" points="11,6.2 11,6.2 12,8 12,8 12,7.9 12,8 12,8 12,7.9 11,6.2 11,6.2 11,6.2 11,6.2 9,6.2 9,6.2 9,6.2 
									"/>
				<polygon class="st1" points="12,11.6 11,9.8 11,9.8 12,11.6 				"/>
				<polygon class="st1" points="12,8 11,9.8 11,9.8 12,8 				"/>
				<polygon class="st1" points="12,8 12,7.9 12,8 				"/>
				<polygon class="st1" points="12.1,8 11,9.8 12,11.5 12,11.5 11,9.8 12,8.1 13,9.8 12,11.5 12,11.6 12.1,11.6 12.1,11.6 
					12.1,11.6 12.1,11.6 13.1,9.8 13.1,9.8 12.1,8 				"/>
				<polygon class="st1" points="8.9,9.7 8.9,9.7 9.7,8.4 				"/>
				<polygon class="st1" points="9,9.8 9,9.8 9.6,8.8 				"/>
				<polygon class="st1" points="12,8 12,8 12,8 10,8 10,8 10,8 12,8 12,8 11,9.8 11,9.8 11,9.8 12.1,8 12.1,8 12.1,8 12,8 12,8 
									"/>
				<polygon class="st1" points="9.9,11.6 8.9,9.9 8.9,9.9 9.9,11.6 				"/>
				<polygon class="st1" points="9,9.8 9.7,11.1 9,9.8 				"/>
				<polygon class="st1" points="11,9.8 11,9.8 12,11.6 12,11.6 12,11.5 11,9.8 11,9.8 11,9.8 11,9.8 9,9.8 9,9.8 9,9.8 				"/>
				<polygon class="st1" points="11,13.4 12,11.6 12,11.6 11,13.4 				"/>
				<polygon class="st1" points="11,13.4 12,15.1 12,15.1 11,13.4 				"/>
				<polygon class="st1" points="12,15.2 12,15.2 11,13.6 				"/>
				<polygon class="st1" points="13.1,13.4 13.1,13.4 12.7,12.7 12.1,11.6 12.1,11.6 11.4,12.7 12,11.7 13,13.4 12,15.1 12,15.2 
					12.1,15.2 12.1,15.2 12.1,15.2 12.1,15.2 				"/>
				<polygon class="st1" points="12,11.6 12,11.5 12,11.5 12,11.6 				"/>
				<polygon class="st1" points="8.9,13.3 8.9,13.3 9.7,11.9 				"/>
				<polygon class="st1" points="12,11.6 12,11.6 12,11.6 12,11.6 10,11.6 10,11.6 9,13.4 9,13.4 10,11.6 12,11.6 12,11.6 11,13.4 
					11,13.4 11,13.4 11,13.4 11.4,12.7 12.1,11.6 12.1,11.6 				"/>
				<polygon class="st1" points="9,13.4 10,15.2 10,15.2 9,13.4 				"/>
				<polygon class="st1" points="9.7,14.8 8.9,13.5 8.9,13.5 				"/>
				<polygon class="st1" points="11,13.4 11,13.4 11,13.4 11,13.4 9,13.4 9,13.4 9,13.4 11,13.4 11,13.6 12,15.2 12,15.2 12,15.1 
									"/>
				<polygon class="st1" points="12,18.7 12,18.7 11.5,17.8 				"/>
				<polygon class="st1" points="12,18.8 12,18.8 11.2,17.5 				"/>
				<polygon class="st1" points="12,15.2 12,15.2 11,16.8 				"/>
				<polygon class="st1" points="12.2,18.5 13.1,17 13.1,17 12.1,15.2 12.1,15.2 12,15.3 12,15.3 12,15.3 13,17 12,18.7 12,18.8 
					12.1,18.8 12.1,18.8 12.1,18.8 12.1,18.8 				"/>
				<polygon class="st1" points="12,15.2 12,15.2 12,15.1 12,15.1 				"/>
				<polygon class="st1" points="9.9,15.2 9.9,15.2 9.5,16 				"/>
				<polygon class="st1" points="12,15.2 12,15.2 12,15.2 12,15.2 10,15.2 10,15.2 10,15.2 10,15.2 12,15.2 12,15.2 11,16.8 11,17 
					11,17 11,17 12,15.3 12.1,15.2 12.1,15.2 				"/>
				<polygon class="st1" points="9.9,18.8 9.7,18.4 9.9,18.8 				"/>
				<polygon class="st1" points="10,18.8 10,18.8 9.9,18.7 				"/>
				<polygon class="st1" points="11.5,17.8 11,17 11,17 11,17 9,17 9,17 9,17 11,17 11.2,17.5 12,18.8 12,18.8 12,18.7 				"/>
				<polygon class="st1" points="12,18.8 11,20.6 11,20.6 12,18.8 				"/>
				<polygon class="st1" points="11,20.6 12,22.3 12,22.3 11,20.6 				"/>
				<polygon class="st1" points="13.1,20.6 13.1,20.6 13.1,20.5 12.1,18.8 12.1,18.8 11.1,20.5 12,18.9 13,20.6 12,22.3 12,22.4 
					12.1,22.4 				"/>
				<polygon class="st1" points="12,18.8 12,18.8 12,18.7 12,18.7 				"/>
				<polygon class="st1" points="8.9,20.5 8.9,20.5 9.9,18.8 9.9,18.8 9.9,18.8 				"/>
				<polygon class="st1" points="12,18.8 12,18.8 12,18.8 12,18.8 10,18.8 10,18.8 10,18.8 9,20.6 9,20.6 10,18.8 12,18.8 12,18.8 
					11,20.6 11,20.6 11,20.6 11,20.6 11.1,20.5 12.1,18.8 12.1,18.8 				"/>
				<polygon class="st1" points="9,20.6 9.7,21.8 9,20.6 				"/>
				<polygon class="st1" points="9.4,21.4 8.9,20.7 8.9,20.7 				"/>
				<polygon class="st1" points="11,20.6 11,20.6 11,20.6 11,20.6 9,20.6 9,20.6 9,20.6 11,20.6 12,22.4 12,22.4 12,22.3 				"/>
				<polygon class="st1" points="12,22.4 12,22.4 11,24.1 				"/>
				<polygon class="st1" points="11,24.2 11.4,25 11.4,25 11,24.2 				"/>
				<polygon class="st1" points="11,24.2 11.5,23.3 11,24.2 				"/>
				<polygon class="st1" points="13.1,24.2 13.1,24.2 12.1,22.4 12,22.5 13,24.2 12.6,25 12.6,25 				"/>
				<polygon class="st1" points="12,22.3 12,22.3 12,22.4 12,22.4 				"/>
				<polygon class="st1" points="9,24.2 9,24.2 9.6,23 				"/>
				<polygon class="st1" points="8.9,24.1 9.4,23.4 8.9,24.1 				"/>
				<polygon class="st1" points="12.1,22.4 12,22.4 12,22.4 12,22.4 10,22.4 10,22.4 10,22.4 12,22.4 12,22.4 11,24.1 11,24.2 
					11,24.2 11,24.2 11.5,23.3 12,22.5 12.1,22.4 12.1,22.4 				"/>
				<polygon class="st1" points="9,24.2 9.4,25 9.4,25 9,24.2 				"/>
				<polygon class="st1" points="8.9,24.3 9.4,25 9.4,25 8.9,24.3 				"/>
				<polygon class="st1" points="11,24.2 11,24.2 11,24.2 9,24.2 9,24.2 9,24.2 11,24.2 11,24.2 11.4,25 11.5,25 11,24.2 				"/>
				<polygon class="st1" points="9.9,0.8 9.6,1.4 8.9,2.5 9,2.6 9,2.6 9.5,1.8 10,0.8 10,0.8 10,0.8 9.6,0.2 9.5,0 9.5,0 9.5,0.1 
									"/>
				<polygon class="st1" points="7.9,0.8 8.4,0.1 7.9,0.8 8.3,1.4 				"/>
				<polygon class="st1" points="6.2,0 6.2,0 6.1,0.2 				"/>
				<polygon class="st1" points="7.9,0.8 7.9,0.8 8.4,0.1 8.4,0 8.3,0 7.9,0.8 				"/>
				<polygon class="st1" points="5.9,0.8 5.9,0.8 6.3,0 6.3,0 5.9,0.8 				"/>
				<polygon class="st1" points="6.8,2.6 6,1.3 6.8,2.6 				"/>
				<polygon class="st1" points="9,2.6 9,2.6 9,2.6 9,2.6 				"/>
				<polygon class="st1" points="5.9,0.8 5.9,0.8 6.9,2.6 6.9,2.6 5.9,0.8 7.9,0.8 8.9,2.6 8.9,2.6 8.9,2.5 9,2.6 9,2.6 8.9,2.5 
					8.9,2.5 8.3,1.4 7.9,0.8 7.9,0.8 7.9,0.8 5.9,0.8 5.9,0.8 5.9,0.8 				"/>
				<polygon class="st1" points="9.9,4.4 9.3,5.5 8.9,6.1 9,6.2 9,6.2 9.7,4.9 10,4.4 10,4.4 10,4.4 9.6,3.8 9,2.6 9,2.6 8.9,2.7 
					9.6,3.8 				"/>
				<polygon class="st1" points="7.9,4.4 8.3,3.8 7.9,4.4 8.6,5.5 				"/>
				<polygon class="st1" points="8.9,2.5 8.9,2.6 9,2.6 				"/>
				<polygon class="st1" points="6.1,3.8 6.8,2.6 6.8,2.6 6.8,2.6 				"/>
				<polygon class="st1" points="8.9,2.6 8.9,2.6 6.9,2.6 6.9,2.6 6.9,2.6 5.9,4.4 5.9,4.4 5.9,4.4 6.9,2.6 8.9,2.6 7.9,4.4 
					7.9,4.4 7.9,4.4 8.3,3.8 8.9,2.7 8.9,2.7 9,2.6 9,2.6 9,2.6 9,2.6 9,2.6 9,2.6 				"/>
				<polygon class="st1" points="6.8,6.2 6.3,5.2 6.8,6.2 				"/>
				<polygon class="st1" points="9,6.2 9,6.2 9,6.2 9,6.2 				"/>
				<polygon class="st1" points="5.9,4.4 5.9,4.4 6.9,6.2 6.9,6.2 5.9,4.4 7.9,4.4 8.9,6.2 8.9,6.2 8.9,6.1 9,6.2 9,6.2 8.9,6.1 
					8.9,6.1 8.6,5.5 7.9,4.4 7.9,4.4 7.9,4.4 5.9,4.4 5.9,4.4 5.9,4.4 				"/>
				<polygon class="st1" points="8.4,7.2 7.9,8 8.2,8.4 7.9,8 				"/>
				<polygon class="st1" points="10,8 10,8 10,8 9.4,6.9 9,6.2 9,6.2 8.9,6.3 9.5,7.2 9.9,8 9.7,8.4 8.9,9.7 9,9.8 9,9.8 9.6,8.8 
									"/>
				<polygon class="st1" points="8.9,6.1 8.9,6.2 9,6.2 				"/>
				<polygon class="st1" points="5.9,8 6.9,6.2 8.9,6.2 7.9,8 7.9,8 7.9,8 8.4,7.2 8.9,6.3 8.9,6.3 9,6.2 9,6.2 9,6.2 9,6.2 9,6.2 
					9,6.2 8.9,6.2 8.9,6.2 6.9,6.2 6.9,6.2 6.9,6.2 5.9,8 5.9,8 				"/>
				<polygon class="st1" points="6.1,7.5 6.8,6.2 6.8,6.2 6.8,6.2 				"/>
				<polygon class="st1" points="6.8,9.8 6.3,8.8 6.8,9.8 				"/>
				<polygon class="st1" points="5.9,8 6.9,9.8 6.9,9.8 5.9,8 7.9,8 8.9,9.8 8.9,9.8 8.9,9.7 9,9.8 9,9.8 8.9,9.7 8.9,9.7 8.2,8.4 
					7.9,8 7.9,8 7.9,8 5.9,8 5.9,8 5.9,8 5.9,8 				"/>
				<polygon class="st1" points="9,9.8 9,9.8 9,9.8 9,9.8 				"/>
				<polygon class="st1" points="7.9,11.6 8.1,11.9 7.9,11.6 				"/>
				<polygon class="st1" points="10,11.6 10,11.6 9.7,11.1 9,9.8 9,9.8 8.9,9.9 9.9,11.6 9.9,11.6 9.7,11.9 8.9,13.3 9,13.4 9,13.4 
									"/>
				<polygon class="st1" points="8.9,9.8 9,9.8 8.9,9.7 				"/>
				<polygon class="st1" points="5.9,11.6 6.9,9.8 8.9,9.8 7.9,11.6 7.9,11.6 7.9,11.6 7.9,11.6 8.9,9.9 8.9,9.9 9,9.8 9,9.8 9,9.8 
					9,9.8 9,9.8 9,9.8 8.9,9.8 8.9,9.8 6.9,9.8 6.9,9.8 6.9,9.8 5.9,11.6 5.9,11.6 				"/>
				<polygon class="st1" points="6.3,10.8 6.8,9.8 6.8,9.8 6.8,9.8 				"/>
				<polygon class="st1" points="6.8,13.4 6.2,12.3 6.8,13.4 				"/>
				<polygon class="st1" points="5.9,11.6 6.8,13.3 5.9,11.6 5.9,11.6 7.9,11.6 8.9,13.4 8.9,13.4 8.9,13.3 9,13.4 9,13.4 8.9,13.3 
					8.9,13.3 8.1,11.9 7.9,11.6 7.9,11.6 7.9,11.6 5.9,11.6 5.9,11.6 5.9,11.6 5.9,11.6 				"/>
				<polygon class="st1" points="9,13.4 9,13.4 9,13.4 9,13.4 				"/>
				<polygon class="st1" points="8.9,17 8.9,17 8.7,16.6 				"/>
				<polygon class="st1" points="7.9,15.2 7.9,15.2 8.2,14.8 				"/>
				<polygon class="st1" points="8.9,16.9 8.9,16.9 8.4,16 				"/>
				<polygon class="st1" points="10,15.2 10,15.2 10,15.2 9,13.4 9,13.4 8.9,13.5 9.7,14.8 9.9,15.2 9.9,15.2 9.5,16 8.9,16.9 9,17 
					9,17 9,17 9,17 9,17 				"/>
				<polygon class="st1" points="8.9,13.3 8.9,13.4 9,13.4 				"/>
				<polygon class="st1" points="6.2,14.5 6.9,13.4 8.9,13.4 7.9,15.2 7.9,15.2 7.9,15.2 8.2,14.8 8.9,13.5 8.9,13.5 9,13.4 9,13.4 
					9,13.4 9,13.4 9,13.4 9,13.4 8.9,13.4 8.9,13.4 6.9,13.4 6.9,13.4 6.9,13.4 5.9,15.2 5.9,15.2 5.9,15.2 				"/>
				<polygon class="st1" points="6.8,17 6.1,15.7 6.8,17 				"/>
				<polygon class="st1" points="6.9,17 5.9,15.2 7.9,15.2 8.7,16.6 8.9,17 8.9,17 8.9,16.9 8.4,16 7.9,15.2 7.9,15.2 7.9,15.2 
					7.9,15.2 5.9,15.2 5.9,15.2 5.9,15.2 5.9,15.2 5.9,15.2 5.9,15.2 6.9,17 				"/>
				<polygon class="st1" points="8.9,17 8.9,17 8.5,17.7 				"/>
				<polygon class="st1" points="10,18.8 10,18.8 9.9,18.7 9,17 9,17 9,17 8.2,18.4 8.9,17.1 9.7,18.4 9.9,18.8 9.9,18.8 8.9,20.5 
					9,20.6 9,20.6 				"/>
				<polygon class="st1" points="8.9,17 9,17 8.9,16.9 8.9,16.9 				"/>
				<polygon class="st1" points="6.2,18.1 6.8,17 6.8,17 6.8,17 				"/>
				<polygon class="st1" points="9,17 8.9,17 8.9,17 8.9,17 6.9,17 6.9,17 6.9,17 5.9,18.8 5.9,18.8 5.9,18.7 6.9,17 8.9,17 8.9,17 
					8.5,17.7 7.9,18.8 7.9,18.8 7.9,18.8 8.2,18.4 9,17 9,17 				"/>
				<polygon class="st1" points="6.8,20.6 6.4,19.9 6.8,20.6 				"/>
				<polygon class="st1" points="8.9,20.5 7.9,18.8 7.9,18.8 7.9,18.8 5.9,18.8 5.9,18.8 5.9,18.8 5.9,18.8 5.9,18.8 5.9,18.8 
					6.9,20.6 6.9,20.6 5.9,19 5.9,18.8 5.9,18.8 7.9,18.8 8.9,20.6 8.9,20.6 8.9,20.5 9,20.6 9,20.6 8.9,20.5 				"/>
				<polygon class="st1" points="9,20.6 9,20.6 9,20.6 9,20.6 				"/>
				<polygon class="st1" points="8.5,21.4 7.9,22.4 8.5,23.4 7.9,22.4 				"/>
				<polygon class="st1" points="10,22.4 10,22.4 10,22.4 9.7,21.8 9,20.6 9,20.6 8.9,20.7 9.4,21.4 9.9,22.4 9.4,23.4 8.9,24.1 
					9,24.2 9,24.2 9.6,23 				"/>
				<polygon class="st1" points="8.9,20.6 9,20.6 8.9,20.5 				"/>
				<polygon class="st1" points="6.4,21.4 6.8,20.6 6.8,20.6 6.8,20.6 				"/>
				<polygon class="st1" points="9,20.6 9,20.6 9,20.6 9,20.6 8.9,20.6 8.9,20.6 6.9,20.6 6.9,20.6 6.9,20.6 5.9,22.4 5.9,22.4 
					5.9,22.4 6.9,20.6 8.9,20.6 7.9,22.4 7.9,22.4 7.9,22.4 8.5,21.4 8.9,20.7 8.9,20.7 9,20.6 9,20.6 				"/>
				<polygon class="st1" points="6.8,24.2 5.9,22.6 6.8,24.2 				"/>
				<polygon class="st1" points="8.9,24.1 8.5,23.4 7.9,22.4 7.9,22.4 7.9,22.4 5.9,22.4 5.9,22.4 5.9,22.4 5.9,22.4 5.9,22.4 
					6.9,24.2 6.9,24.2 5.9,22.4 7.9,22.4 8.9,24.2 8.9,24.2 8.9,24.1 9,24.2 9,24.2 8.9,24.1 				"/>
				<polygon class="st1" points="9,24.2 9,24.2 9,24.2 9,24.2 				"/>
				<polygon class="st1" points="9,24.2 8.9,24.3 9.4,25 9.4,25 9,24.2 				"/>
				<polygon class="st1" points="8.9,24.2 9,24.2 8.9,24.1 				"/>
				<polygon class="st1" points="8.9,24.3 9,24.2 9,24.2 9,24.2 9,24.2 9,24.2 9,24.2 8.9,24.2 8.9,24.2 6.9,24.2 6.9,24.2 
					6.9,24.2 6.4,25 6.4,25 6.9,24.2 8.9,24.2 8.4,25 8.5,25 8.9,24.3 				"/>
				<polygon class="st1" points="6.8,24.2 6.8,24.2 6.8,24.2 6.4,25 6.4,25 				"/>
				<polygon class="st1" points="5.8,0.7 5.8,0.8 5.9,0.8 6.3,0 6.2,0 6.1,0.2 				"/>
				<polygon class="st1" points="5.8,0.8 5.3,0 5.3,0 5.8,0.8 				"/>
				<polygon class="st1" points="3.8,0.8 3.3,0 3.3,0 3.8,0.8 				"/>
				<polygon class="st1" points="3.7,0.8 3.3,0 3.3,0 3.7,0.8 				"/>
				<polygon class="st1" points="5.9,0.8 5.9,0.8 5.9,0.8 5.9,0.8 				"/>
				<polygon class="st1" points="5.8,0.8 5.8,0.7 5.8,0.8 5.8,0.8 5.8,0.7 5.4,0 5.3,0 5.8,0.8 				"/>
				<polygon class="st1" points="5.8,0.8 4.8,2.6 4.8,2.6 5.8,0.8 				"/>
				<polygon class="st1" points="5.8,4.4 4.8,2.7 5.8,4.4 				"/>
				<polygon class="st1" points="6.9,2.6 6.9,2.6 5.9,0.8 5.9,0.8 5.8,0.9 6,1.3 6.8,2.6 6.8,2.6 6.1,3.8 5.8,4.3 5.8,4.4 5.9,4.4 
									"/>
				<polygon class="st1" points="5.8,0.8 5.8,0.7 5.8,0.8 				"/>
				<polygon class="st1" points="5.8,0.8 5.8,0.8 4.8,2.6 4.8,2.6 4.8,2.6 5.8,0.9 5.9,0.8 5.9,0.8 5.9,0.8 5.9,0.8 5.8,0.8 
					5.8,0.8 5.8,0.8 5.8,0.8 5.8,0.8 3.8,0.8 3.8,0.8 3.8,0.8 3.3,1.6 3.8,0.8 				"/>
				<polygon class="st1" points="3.7,0.8 3.7,0.8 3.7,0.8 3.2,1.8 				"/>
				<polygon class="st1" points="3.7,4.4 3.2,3.4 3.7,4.4 				"/>
				<polygon class="st1" points="3.2,3.4 3.8,4.4 3.8,4.4 				"/>
				<polygon class="st1" points="5.9,4.4 5.9,4.4 5.9,4.4 5.9,4.4 				"/>
				<polygon class="st1" points="4.8,2.6 4.8,2.7 5.8,4.4 5.8,4.4 5.8,4.3 5.8,4.4 5.8,4.4 5.8,4.3 4.8,2.6 4.8,2.6 4.8,2.6 
					4.8,2.6 2.8,2.6 2.8,2.6 2.8,2.6 				"/>
				<polygon class="st1" points="5.8,4.4 4.9,5.9 5.8,4.4 				"/>
				<polygon class="st1" points="4.8,6.2 5.8,8 5.8,8 4.8,6.2 				"/>
				<polygon class="st1" points="6.9,6.2 6.9,6.2 5.9,4.4 5.9,4.4 5.8,4.5 6.3,5.2 6.8,6.2 6.8,6.2 6.1,7.5 5.8,7.9 5.8,8 5.9,8 
									"/>
				<polygon class="st1" points="5.8,4.4 5.8,4.3 5.8,4.4 				"/>
				<polygon class="st1" points="3.3,5.2 3.7,4.4 3.7,4.4 3.7,4.4 				"/>
				<polygon class="st1" points="5.8,4.4 5.8,4.4 4.9,5.9 4.8,6.2 4.8,6.2 4.8,6.2 5.8,4.5 5.9,4.4 5.9,4.4 5.9,4.4 5.9,4.4 
					5.8,4.4 5.8,4.4 5.8,4.4 5.8,4.4 5.8,4.4 3.8,4.4 3.8,4.4 3.8,4.4 3,5.7 3.8,4.4 				"/>
				<polygon class="st1" points="3.3,7.1 3.8,8 3.8,8 				"/>
				<polygon class="st1" points="3.7,8 3.1,6.9 3.7,8 				"/>
				<polygon class="st1" points="5.9,8 5.9,8 5.9,8 5.9,8 				"/>
				<polygon class="st1" points="4.8,6.2 5.8,8 5.8,8 5.8,7.9 5.8,8 5.8,8 5.8,7.9 4.8,6.2 4.8,6.2 4.8,6.2 2.8,6.2 2.8,6.2 
					2.8,6.2 4.8,6.2 				"/>
				<polygon class="st1" points="5.8,8 4.8,9.8 4.8,9.8 5.8,8 				"/>
				<polygon class="st1" points="4.8,9.8 5.8,11.6 5.8,11.6 4.8,9.8 				"/>
				<polygon class="st1" points="6.9,9.8 6.9,9.8 5.9,8 5.9,8 5.8,8.1 6.3,8.8 6.8,9.8 6.8,9.8 6.3,10.8 5.8,11.5 5.8,11.6 
					5.9,11.6 				"/>
				<polygon class="st1" points="5.8,7.9 5.8,8 5.8,8 				"/>
				<polygon class="st1" points="3,9.3 3.7,8 3.7,8 3.7,8 				"/>
				<polygon class="st1" points="5.8,8 5.8,8 4.8,9.8 4.8,9.8 4.8,9.8 5.8,8.1 5.9,8 5.9,8 5.9,8 5.9,8 5.8,8 5.8,8 5.8,8 5.8,8 
					5.8,8 3.8,8 3.8,8 3.8,8 3.1,9.1 3.8,8 				"/>
				<polygon class="st1" points="3,10.3 3.8,11.6 3.8,11.6 				"/>
				<polygon class="st1" points="3.7,11.6 2.9,10.2 3.7,11.6 				"/>
				<polygon class="st1" points="5.9,11.6 5.9,11.6 5.9,11.6 5.9,11.6 				"/>
				<polygon class="st1" points="4.8,9.8 5.8,11.6 5.8,11.6 5.8,11.5 5.8,11.6 5.8,11.6 5.8,11.5 4.8,9.8 4.8,9.8 4.8,9.8 4.8,9.8 
					2.8,9.8 2.8,9.8 2.8,9.8 4.8,9.8 				"/>
				<polygon class="st1" points="4.8,13.4 5,13.7 4.8,13.4 				"/>
				<polygon class="st1" points="5.8,15.2 4.8,13.6 5.8,15.2 				"/>
				<polygon class="st1" points="5.8,11.6 4.8,13.4 4.8,13.4 5.8,11.6 				"/>
				<polygon class="st1" points="6.9,13.4 6.9,13.4 6.8,13.3 5.9,11.6 5.9,11.6 5.8,11.7 6.2,12.3 6.8,13.4 6.8,13.4 5.8,15.1 
					5.8,15.2 5.9,15.2 				"/>
				<polygon class="st1" points="5.8,11.5 5.8,11.6 5.8,11.6 				"/>
				<polygon class="st1" points="5.8,11.6 5.8,11.6 4.8,13.4 4.8,13.4 4.8,13.4 4.8,13.4 5.8,11.7 5.9,11.6 5.9,11.6 5.9,11.6 
					5.9,11.6 5.8,11.6 5.8,11.6 5.8,11.6 5.8,11.6 5.8,11.6 3.8,11.6 3.8,11.6 3.8,11.6 2.8,13.4 2.8,13.4 3.8,11.6 				"/>
				<polygon class="st1" points="3.7,11.6 3.7,11.6 3.7,11.6 2.7,13.3 2.7,13.3 				"/>
				<polygon class="st1" points="3.7,15.2 2.7,13.5 2.7,13.5 3.7,15.2 				"/>
				<polygon class="st1" points="2.8,13.4 2.8,13.4 3.8,15.2 3.8,15.2 				"/>
				<polygon class="st1" points="5.9,15.2 5.9,15.2 5.9,15.2 5.9,15.2 				"/>
				<polygon class="st1" points="4.8,13.4 4.8,13.6 5.8,15.2 5.8,15.2 5.8,15.1 5.8,15.2 5.8,15.2 5.8,15.1 5,13.7 4.8,13.4 
					4.8,13.4 4.8,13.4 4.8,13.4 2.8,13.4 2.8,13.4 2.8,13.4 				"/>
				<polygon class="st1" points="5.8,18.8 5.8,18.8 5,17.5 				"/>
				<polygon class="st1" points="5.8,15.2 5.8,15.2 4.8,16.8 				"/>
				<polygon class="st1" points="5.9,18.8 6.9,17 6.9,17 5.9,15.2 5.9,15.2 5.8,15.3 6.1,15.7 6.8,17 6.8,17 6.2,18.1 5.8,18.7 
					5.8,18.8 5.9,18.8 5.9,18.8 5.9,18.8 				"/>
				<polygon class="st1" points="5.8,15.2 5.8,15.1 5.8,15.2 				"/>
				<polygon class="st1" points="3.2,16.1 3.7,15.2 3.7,15.2 3.7,15.2 				"/>
				<polygon class="st1" points="5.9,15.2 5.9,15.2 5.9,15.2 5.9,15.2 5.8,15.2 5.8,15.2 5.8,15.2 5.8,15.2 5.8,15.2 3.8,15.2 
					3.8,15.2 3.8,15.2 3.5,15.7 3.8,15.2 5.8,15.2 5.8,15.2 4.8,16.8 4.8,17 4.8,17 4.8,17 5.8,15.3 				"/>
				<polygon class="st1" points="3.7,18.8 3.3,18 3.7,18.8 				"/>
				<polygon class="st1" points="3.4,18.1 3.8,18.8 3.8,18.8 				"/>
				<polygon class="st1" points="5,17.5 5.8,18.8 5.8,18.8 5.8,18.7 5.8,18.8 5.8,18.8 5.8,18.7 4.8,17 4.8,17 4.8,17 2.8,17 
					2.8,17 2.8,17 4.8,17 				"/>
				<polygon class="st1" points="5.9,18.8 5.9,18.8 5.9,18.8 5.9,18.8 5.9,18.8 				"/>
				<polygon class="st1" points="5.8,18.8 4.8,20.6 4.8,20.6 5.8,18.8 				"/>
				<polygon class="st1" points="6.9,20.6 6.9,20.6 5.9,18.8 5.9,18.8 5.4,19.5 5.8,18.9 6.4,19.9 6.8,20.6 6.8,20.6 6.4,21.4 
					5.8,22.3 5.8,22.4 5.9,22.4 				"/>
				<polygon class="st1" points="5.8,18.7 5.8,18.8 5.8,18.8 				"/>
				<polygon class="st1" points="5.8,18.8 5.8,18.8 4.8,20.6 4.8,20.6 4.8,20.6 5.4,19.5 5.9,18.8 5.9,18.8 5.9,18.8 5.8,18.8 
					5.8,18.8 5.8,18.8 5.8,18.8 5.8,18.8 3.8,18.8 3.8,18.8 3.8,18.8 3.1,20 3.8,18.8 				"/>
				<polygon class="st1" points="3.7,18.8 3.7,18.8 3.7,18.8 2.7,20.5 2.7,20.5 				"/>
				<polygon class="st1" points="2.8,20.6 3.8,22.4 3.8,22.4 2.8,20.6 				"/>
				<polygon class="st1" points="3.7,22.4 3.3,21.6 3.7,22.4 				"/>
				<polygon class="st1" points="5.9,22.4 5.9,22.4 5.9,22.4 5.9,22.4 				"/>
				<polygon class="st1" points="5.8,22.3 4.8,20.6 4.8,20.6 4.8,20.6 4.8,20.6 2.8,20.6 2.8,20.6 2.8,20.6 4.8,20.6 5.8,22.4 
					5.8,22.4 5.8,22.3 5.8,22.4 5.8,22.4 				"/>
				<polygon class="st1" points="4.8,24.2 5.2,25 5.2,25 4.8,24.2 				"/>
				<polygon class="st1" points="5.8,22.4 5.8,22.4 4.8,24.1 				"/>
				<polygon class="st1" points="6.9,24.2 6.9,24.2 5.9,22.4 5.9,22.4 5.8,22.5 5.9,22.6 6.8,24.2 6.8,24.2 6.4,25 6.4,25 				"/>
				<polygon class="st1" points="5.8,22.3 5.8,22.4 5.8,22.4 				"/>
				<polygon class="st1" points="3.3,23.2 3.7,22.4 3.7,22.4 3.7,22.4 				"/>
				<polygon class="st1" points="5.9,22.4 5.9,22.4 5.8,22.4 5.8,22.4 5.8,22.4 5.8,22.4 3.8,22.4 3.8,22.4 3.8,22.4 2.8,24.2 
					3.8,22.4 5.8,22.4 5.8,22.4 4.8,24.1 4.8,24.2 4.8,24.2 4.8,24.2 5.8,22.5 5.9,22.4 5.9,22.4 				"/>
				<polygon class="st1" points="3.2,25 3.2,25 3.1,24.8 				"/>
				<polygon class="st1" points="4.8,24.2 4.8,24.2 2.8,24.2 2.8,24.2 2.8,24.2 4.8,24.2 4.8,24.2 5.2,25 5.3,25 4.8,24.2 				"/>
				<polygon class="st1" points="2.7,2.5 2.7,2.5 1.7,0.8 2.2,0 2.2,0 1.7,0.8 				"/>
				<polygon class="st1" points="2.1,1.6 2.7,2.6 2.7,2.6 				"/>
				<polygon class="st1" points="3.7,0.8 3.2,1.8 2.7,2.5 2.8,2.6 2.8,2.6 2.8,2.6 2.8,2.6 2.8,2.6 3.3,1.6 3.8,0.8 3.8,0.8 3.3,0 
					3.3,0 3.7,0.8 				"/>
				<polygon class="st1" points="0.1,0 0.1,0 0,0.2 0,0.2 0.1,0 				"/>
				<polygon class="st1" points="1.7,0.8 1.7,0.8 2.2,0 2.1,0 1.7,0.8 				"/>
				<polygon class="st1" points="2.1,1.6 2.7,2.6 2.7,2.6 2.7,2.5 1.7,0.8 1.7,0.8 1.7,0.8 0,0.8 0,0.8 1.7,0.8 				"/>
				<polygon class="st1" points="0.6,2.6 0.6,2.6 0.6,2.6 0.5,2.4 0.6,2.5 				"/>
				<polygon class="st1" points="0.7,2.6 0.1,1.5 0,1.4 0,1.4 0.7,2.6 				"/>
				<polygon class="st1" points="1.7,4.4 2.7,2.7 3.2,3.4 3.7,4.4 3.7,4.4 3.3,5.2 2.7,6.1 2.8,6.2 2.8,6.2 2.8,6.2 2.8,6.2 
					2.8,6.2 3,5.7 3.8,4.4 3.8,4.4 3.2,3.4 2.8,2.6 2.8,2.6 2.8,2.6 1.7,4.4 2.7,6.1 2.7,6.1 				"/>
				<polygon class="st1" points="2.4,5.7 2.7,6.2 2.7,6.2 				"/>
				<polygon class="st1" points="2.7,2.6 2.2,3.4 2.7,2.6 				"/>
				<polygon class="st1" points="2.8,2.6 2.7,2.5 2.7,2.5 2.7,2.6 				"/>
				<polygon class="st1" points="2.8,2.6 2.8,2.6 2.8,2.6 2.7,2.6 2.7,2.6 2.7,2.6 0.7,2.6 0.7,2.6 0.7,2.6 0,3.8 0.1,3.6 0.7,2.6 
					2.7,2.6 2.7,2.6 2.2,3.4 1.7,4.4 1.7,4.4 1.7,4.4 				"/>
				<polygon class="st1" points="2.4,5.7 2.7,6.2 2.7,6.2 2.7,6.1 1.7,4.4 1.7,4.4 1.7,4.4 0,4.4 0,4.4 1.7,4.4 				"/>
				<polygon class="st1" points="0.7,6.2 0.1,5.2 0,5 0,5 0.7,6.2 				"/>
				<polygon class="st1" points="2.3,9.1 2.7,9.8 2.7,9.8 				"/>
				<polygon class="st1" points="1.7,8 2.7,6.3 3.1,6.9 3.7,8 3.7,8 3,9.3 2.7,9.7 2.8,9.8 2.8,9.8 2.8,9.8 2.8,9.8 2.8,9.8 
					3.1,9.1 3.8,8 3.8,8 3.3,7.1 2.8,6.2 2.8,6.2 2.8,6.2 1.7,8 2.7,9.7 2.7,9.7 				"/>
				<polygon class="st1" points="2.7,6.2 2.1,7.2 2.7,6.2 				"/>
				<polygon class="st1" points="2.8,6.2 2.7,6.1 2.7,6.1 2.7,6.2 				"/>
				<polygon class="st1" points="0.5,6.4 0.5,6.5 0.6,6.2 0.6,6.2 0.6,6.2 				"/>
				<polygon class="st1" points="2.8,6.2 2.8,6.2 2.8,6.2 2.7,6.2 2.7,6.2 2.7,6.2 0.7,6.2 0.7,6.2 0.7,6.2 0.1,7.2 0.2,7.1 
					0.7,6.2 2.7,6.2 2.7,6.2 2.1,7.2 1.7,8 1.7,8 1.7,8 				"/>
				<polygon class="st1" points="2.3,9.1 2.7,9.8 2.7,9.8 2.7,9.7 1.7,8 1.7,8 1.7,8 0,8 0,8 1.7,8 				"/>
				<polygon class="st1" points="0.7,9.8 0.1,8.7 0,8.6 0,8.6 0.7,9.8 				"/>
				<polygon class="st1" points="2.7,9.8 2.4,10.3 2.7,9.8 				"/>
				<polygon class="st1" points="3.8,11.6 3.8,11.6 3,10.3 2.8,9.8 2.8,9.8 2.8,9.8 1.7,11.6 2.7,13.3 1.7,11.6 2.7,9.9 2.9,10.2 
					3.7,11.6 3.7,11.6 2.7,13.3 2.8,13.4 2.8,13.4 				"/>
				<polygon class="st1" points="2.8,9.8 2.7,9.7 2.7,9.7 2.7,9.8 				"/>
				<polygon class="st1" points="2.8,9.8 2.8,9.8 2.8,9.8 2.7,9.8 2.7,9.8 2.7,9.8 0.7,9.8 0.7,9.8 0.7,9.8 0.1,10.8 0.2,10.7 
					0.7,9.8 2.7,9.8 2.7,9.8 2.4,10.3 1.7,11.6 1.7,11.6 1.7,11.6 				"/>
				<polygon class="st1" points="0.6,13.4 0.6,13.4 0.5,13.3 0.6,13.3 				"/>
				<polygon class="st1" points="2.7,13.4 2.7,13.4 2.7,13.3 2.8,13.4 2.8,13.4 2.7,13.3 2.7,13.3 2.7,13.3 1.7,11.6 1.7,11.6 
					1.7,11.6 0,11.6 0,11.6 1.7,11.6 				"/>
				<polygon class="st1" points="2.8,13.4 2.8,13.4 2.8,13.4 2.8,13.4 				"/>
				<polygon class="st1" points="2,15.7 2.7,17 2.7,17 				"/>
				<polygon class="st1" points="2.7,13.4 2.7,13.5 2.7,13.4 				"/>
				<polygon class="st1" points="3.5,15.7 3.8,15.2 3.8,15.2 2.8,13.4 2.8,13.4 2.7,13.5 3.7,15.2 3.7,15.2 3.2,16.1 2.7,16.9 
					2.8,17 2.8,17 2.8,17 2.8,17 2.8,17 				"/>
				<polygon class="st1" points="1.7,15.2 2.5,13.9 1.7,15.2 2.7,16.9 2.7,16.9 				"/>
				<polygon class="st1" points="2.7,13.3 2.7,13.4 2.8,13.4 				"/>
				<polygon class="st1" points="2.7,13.5 2.7,13.5 2.8,13.4 2.8,13.4 2.8,13.4 2.8,13.4 2.8,13.4 2.8,13.4 2.7,13.4 2.7,13.4 
					0.7,13.4 0.7,13.4 0.7,13.4 0,14.6 0.3,14.1 0.7,13.4 2.7,13.4 2.7,13.4 2.7,13.5 1.7,15.2 1.7,15.2 1.7,15.2 2.5,13.9 				"/>
				<polygon class="st1" points="2,15.7 2.7,17 2.7,17 2.7,16.9 1.7,15.2 1.7,15.2 1.7,15.2 0,15.2 0,15.2 1.7,15.2 				"/>
				<polygon class="st1" points="0,15.8 0.7,17 0.7,17 				"/>
				<polygon class="st1" points="0.6,17 0.6,17 0.1,16 0.3,16.5 				"/>
				<polygon class="st1" points="2.7,20.6 2.7,20.6 2.3,20 				"/>
				<polygon class="st1" points="2.7,17 2.1,18.1 2.7,17 				"/>
				<polygon class="st1" points="2.8,20.6 3.1,20 3.8,18.8 3.8,18.8 3.4,18.1 2.8,17 2.8,17 2.8,17 1.7,18.8 2.7,20.4 1.7,18.8 
					2.7,17.1 3.3,18 3.7,18.8 3.7,18.8 2.7,20.5 2.8,20.6 2.8,20.6 2.8,20.6 2.8,20.6 				"/>
				<polygon class="st1" points="2.8,17 2.7,16.9 2.7,16.9 2.7,17 				"/>
				<polygon class="st1" points="0.6,17 0.6,17.1 0.6,17.1 0.6,17 0.6,17 				"/>
				<polygon class="st1" points="2.8,17 2.8,17 2.8,17 2.7,17 2.7,17 2.7,17 0.7,17 0.7,17 0.7,17 0.2,17.9 0.7,17 2.7,17 2.7,17 
					2.1,18.1 1.7,18.8 1.7,18.8 1.7,18.8 				"/>
				<polygon class="st1" points="0.6,20.6 0.6,20.6 0.6,20.6 				"/>
				<polygon class="st1" points="2.3,20 2.7,20.6 2.7,20.6 2.7,20.5 2.8,20.6 2.8,20.6 2.7,20.5 2.7,20.5 2.7,20.4 1.7,18.8 
					1.7,18.8 1.7,18.8 0,18.8 0,18.8 1.7,18.8 				"/>
				<polygon class="st1" points="0.2,19.8 0.7,20.6 0.7,20.6 0.4,20 				"/>
				<polygon class="st1" points="2.8,20.6 2.8,20.6 2.8,20.6 2.8,20.6 2.8,20.6 				"/>
				<polygon class="st1" points="2.7,20.6 2.6,20.7 2.7,20.6 				"/>
				<polygon class="st1" points="2.7,24.2 2.7,24.2 2.6,24 				"/>
				<polygon class="st1" points="3.8,22.4 3.8,22.4 2.8,20.6 2.8,20.6 1.7,22.4 2.7,24.1 2.7,24.1 1.7,22.4 2.7,20.7 3.3,21.6 
					3.7,22.4 3.7,22.4 3.3,23.2 2.7,24.1 2.8,24.2 2.8,24.2 2.8,24.2 2.8,24.2 2.8,24.2 2.8,24.2 				"/>
				<polygon class="st1" points="2.7,20.6 2.8,20.6 2.7,20.5 				"/>
				<polygon class="st1" points="2.7,20.6 2.7,20.6 2.6,20.7 1.7,22.4 1.7,22.4 1.7,22.4 2.8,20.6 2.8,20.6 2.8,20.6 2.8,20.6 
					2.8,20.6 2.7,20.6 2.7,20.6 2.7,20.6 0.7,20.6 0.7,20.6 0.7,20.6 0,21.8 0,21.8 0.7,20.6 				"/>
				<polygon class="st1" points="0.7,24.2 0.7,24.2 0,23 				"/>
				<polygon class="st1" points="2.6,24 2.7,24.2 2.7,24.2 2.7,24.1 1.7,22.4 1.7,22.4 1.7,22.4 0,22.4 0,22.4 1.7,22.4 				"/>
				<polygon class="st1" points="2.8,24.2 2.8,24.2 2.8,24.2 2.3,25 2.3,25 2.7,24.3 3.2,25 3.2,25 3.1,24.8 				"/>
				<polygon class="st1" points="2.7,24.2 2.7,24.2 2.3,24.8 				"/>
				<polygon class="st1" points="2.7,24.1 2.7,24.1 2.7,24.2 2.8,24.2 				"/>
				<polygon class="st1" points="0.6,24.2 0.6,24.2 0.2,25 0.2,25 0.6,24.2 				"/>
				<polygon class="st1" points="2.8,24.2 2.8,24.2 2.8,24.2 2.7,24.2 2.7,24.2 2.7,24.2 0.7,24.2 0.7,24.2 0.7,24.2 0.2,25 0.2,25 
					0.4,24.8 0.7,24.2 2.7,24.2 2.7,24.2 2.3,24.8 2.2,25 2.3,25 				"/>
				<polygon class="st1" points="0,0 0,0.1 0,0.2 0.1,0 				"/>
				<polygon class="st1" points="0.7,2.6 0.7,2.6 0,1.4 0,1.5 0.5,2.4 0.6,2.6 0.6,2.6 0,3.7 0,3.8 0,3.8 				"/>
				<polygon class="st1" points="0.7,6.2 0.7,6.2 0,5 0,5.1 0.6,6.2 0.6,6.2 0.5,6.5 0,7.3 0,7.4 0.1,7.2 				"/>
				<polygon class="st1" points="0.7,9.8 0.7,9.8 0,8.6 0,8.7 0.6,9.8 0,10.9 0,11 0.1,10.8 				"/>
				<polygon class="st1" points="0.7,13.4 0.7,13.4 0,12.2 0,12.3 0.5,13.3 0.6,13.4 0.6,13.4 0,14.5 0,14.6 0,14.6 				"/>
				<polygon class="st1" points="0.7,17 0.7,17 0,15.8 0,15.8 0,15.9 0.1,16 0.6,17 0.6,17 0.6,17.1 0,18.1 0,18.2 0.2,17.9 				"/>
				<polygon class="st1" points="0.7,20.6 0.7,20.6 0.2,19.8 0,19.4 0,19.5 0.6,20.6 0.6,20.6 0.6,20.6 0,21.7 0,21.8 				"/>
				<polygon class="st1" points="0.7,24.2 0.7,24.2 0,23 0,23 0,23.1 0.6,24.2 0.6,24.2 0.2,25 0.2,25 				"/>
			</g>
			<circle class="st1" cx="23.4" cy="2.6" r="0.3"/>
			<circle class="st1" cx="23.4" cy="9.8" r="0.3"/>
			<circle class="st1" cx="23.4" cy="17" r="0.3"/>
			<circle class="st1" cx="23.4" cy="24.2" r="0.3"/>
			<circle class="st1" cx="19.3" cy="2.6" r="0.3"/>
			<circle class="st1" cx="19.3" cy="9.8" r="0.3"/>
			<circle class="st1" cx="19.3" cy="17" r="0.3"/>
			<circle class="st1" cx="19.3" cy="24.2" r="0.3"/>
			<circle class="st1" cx="13.1" cy="2.6" r="0.3"/>
			<circle class="st1" cx="13.1" cy="9.8" r="0.3"/>
			<circle class="st1" cx="13.1" cy="17" r="0.3"/>
			<circle class="st1" cx="13.1" cy="24.2" r="0.3"/>
			<circle class="st1" cx="6.9" cy="2.6" r="0.3"/>
			<circle class="st1" cx="6.9" cy="9.8" r="0.3"/>
			<circle class="st1" cx="6.9" cy="17" r="0.3"/>
			<circle class="st1" cx="6.9" cy="24.2" r="0.3"/>
			<circle class="st1" cx="0.7" cy="2.6" r="0.3"/>
			<circle class="st1" cx="0.7" cy="9.8" r="0.3"/>
			<circle class="st1" cx="0.7" cy="17" r="0.3"/>
			<circle class="st1" cx="0.7" cy="24.2" r="0.3"/>
			<circle class="st1" cx="22.3" cy="4.4" r="0.4"/>
			<circle class="st1" cx="22.3" cy="15.2" r="0.4"/>
			<circle class="st1" cx="22.3" cy="22.4" r="0.4"/>
			<circle class="st1" cx="18.3" cy="4.4" r="0.4"/>
			<circle class="st1" cx="18.3" cy="15.2" r="0.4"/>
			<circle class="st1" cx="18.3" cy="22.4" r="0.4"/>
			<circle class="st1" cx="14.1" cy="4.4" r="0.4"/>
			<circle class="st1" cx="14.1" cy="15.2" r="0.4"/>
			<circle class="st1" cx="14.1" cy="22.4" r="0.4"/>
			<circle class="st1" cx="10" cy="4.4" r="0.4"/>
			<circle class="st1" cx="10" cy="15.2" r="0.4"/>
			<circle class="st1" cx="10" cy="22.4" r="0.4"/>
			<circle class="st1" cx="5.9" cy="4.4" r="0.4"/>
			<circle class="st1" cx="5.9" cy="15.2" r="0.4"/>
			<circle class="st1" cx="5.9" cy="22.4" r="0.4"/>
			<circle class="st1" cx="1.7" cy="4.4" r="0.4"/>
			<circle class="st1" cx="1.7" cy="15.2" r="0.4"/>
			<circle class="st1" cx="1.7" cy="22.4" r="0.4"/>
		</g>
	</g>
</g>
</svg>
