<?xml version="1.0" encoding="utf-8"?>
<!-- Generator: Adobe Illustrator 20.1.0, SVG Export Plug-In . SVG Version: 6.00 Build 0)  -->
<svg version="1.1" id="Layer_1" xmlns="http://www.w3.org/2000/svg" xmlns:xlink="http://www.w3.org/1999/xlink" x="0px" y="0px"
	 viewBox="0 0 930.1 1031.6" style="enable-background:new 0 0 930.1 1031.6;" xml:space="preserve">
<style type="text/css">
	.st0{fill:none;stroke:#23160C;stroke-width:4;stroke-miterlimit:10;}
	.st1{fill:none;stroke:#D86313;stroke-width:4;stroke-miterlimit:10;}
    
        
    .st0 {
        stroke-dasharray: 4000;
        stroke-dashoffset: 0;
        animation: dash1 5s linear forwards;
    }
    
    @-webkit-keyframes dash1 {
        0% {
            stroke-dashoffset: 4000;
            fill: transparent;
        }
        75% {
            stroke-dashoffset: 0;
            fill: transparent;
        }
        100% {
            stroke-dashoffset: 0;
            fill: #1C0A00;
        }
    }
    
    .st1 {
        stroke-dasharray: 4000;
        stroke-dashoffset: 0;
        animation: dash2 5s linear forwards;
    }
    
    @-webkit-keyframes dash2 {
        0% {
            stroke-dashoffset: 4000;
            fill: transparent;
        }
        75% {
            stroke-dashoffset: 0;
            fill: transparent;
        }
        100% {
            stroke-dashoffset: 0;
            fill: #FF7F18;
        }
    }
</style>
<title>icon-square-big</title>
<g>
	<path class="st0" d="M46.5,108.7h837.1v814.2H46.5V108.7z"/>
	<path class="st1" d="M46.5,108.7h837.1v814.2H46.5V108.7z M8.5,961h913.2V70.6H8.5V961z M606.6,388c0-3,1.1-4.6,4.6-4.6h59.7
		c3,0,4.6,1.1,4.6,4.6v300.2c0,3-0.8,4.6-4.6,4.6h-59c-3.8,0-4.9-1.9-4.9-4.9V388L606.6,388L606.6,388z M602.4,301.6
		c0-24.4,17.1-38.8,38.8-38.8c23.2,0,38.8,15.6,38.8,38.8c0,25.1-16.4,38.8-39.6,38.8C618.4,340.4,602.4,326.7,602.4,301.6z
		 M431.2,513.1c-10.7-42.2-35.8-134.3-45.3-178.8h-0.8c-8,44.5-28.2,119.9-44.1,178.8H431.2z M325.4,574.8l-30.1,114.1
		c-0.8,3-1.9,3.8-5.7,3.8h-55.9c-3.8,0-4.6-1.1-3.8-5.7L338,308.8c1.9-6.8,3-12.9,3.8-31.6c0-2.7,1.1-3.8,3-3.8h79.9
		c2.7,0,3.8,0.8,4.6,3.8l121,410.5c0.8,3,0,4.9-3,4.9h-63.2c-3,0-4.9-0.8-5.7-3.4l-31.2-114.5H325.4L325.4,574.8z"/>
</g>
</svg>
