<?xml version="1.0" encoding="utf-8"?>
<!-- Generator: Adobe Illustrator 20.1.0, SVG Export Plug-In . SVG Version: 6.00 Build 0)  -->
<svg version="1.1" id="Layer_1" xmlns="http://www.w3.org/2000/svg" xmlns:xlink="http://www.w3.org/1999/xlink" x="0px" y="0px"
	 viewBox="0 0 623.7 188.5" style="enable-background:new 0 0 623.7 188.5;" xml:space="preserve">
<style type="text/css">
	.st0{fill:none;stroke:#222222;stroke-width:1.0008;}
	.st1{fill:none;stroke:#222222;stroke-width:2.0432;stroke-miterlimit:10;}
    
        
    .st0, .st1 {
        stroke-dasharray: 1120;
        stroke-dashoffset: 0;
        animation: dash 5s linear forwards;
    }
    
    @-webkit-keyframes dash {
        0% {
            stroke-dashoffset: 1120;
            fill: transparent;
        }
        100% {
            stroke-dashoffset: 0;
            fill: #222222;
        }
    }
</style>
<g>
	<g>
		<path class="st0" d="M162.3,55.3c-0.7,1.6-1.6,3-2.8,4.2c-1.2,1.2-2.6,2.1-4.2,2.8c-1.6,0.7-3.3,1-5.1,1h-1.5
			c-1.8,0-3.5-0.3-5.1-1c-1.6-0.7-3-1.6-4.2-2.8c-1.2-1.2-2.1-2.6-2.8-4.2c-0.7-1.6-1-3.3-1-5.1v-2.1l4.8-0.8v2.9
			c0,1.2,0.2,2.3,0.7,3.3c0.4,1,1.1,1.9,1.8,2.7s1.7,1.4,2.7,1.8c1,0.4,2.1,0.7,3.3,0.7h1.1c1.2,0,2.3-0.2,3.3-0.7
			c1-0.4,1.9-1.1,2.7-1.8c0.8-0.8,1.4-1.7,1.8-2.7c0.4-1,0.7-2.1,0.7-3.3V9.3h4.8v40.9C163.3,52,163,53.7,162.3,55.3z"/>
		<path class="st0" d="M196.4,62.5l-2.5-3.8c-1,1.4-2.3,2.5-3.9,3.3s-3.3,1.2-5.1,1.2h-1.2c-1.5,0-3-0.3-4.3-0.9
			c-1.4-0.6-2.6-1.4-3.6-2.4c-1-1-1.8-2.2-2.4-3.6c-0.6-1.4-0.9-2.8-0.9-4.3v-0.4c0-1.5,0.3-3,0.9-4.3c0.6-1.4,1.4-2.5,2.4-3.6
			c1-1,2.2-1.8,3.6-2.4c1.4-0.6,2.8-0.9,4.3-0.9h9.7v-5.9c0-0.9-0.2-1.8-0.5-2.6c-0.3-0.8-0.8-1.5-1.4-2.1c-0.6-0.6-1.3-1.1-2.1-1.4
			c-0.8-0.3-1.7-0.5-2.6-0.5H184c-0.9,0-1.8,0.2-2.6,0.5c-0.8,0.3-1.5,0.8-2.1,1.4c-0.6,0.6-1.1,1.3-1.4,2.1
			c-0.3,0.8-0.5,1.7-0.5,2.6V36l-4.6-0.7v-0.4c0-1.5,0.3-3,0.9-4.3c0.6-1.4,1.4-2.5,2.4-3.6c1-1,2.2-1.8,3.6-2.4
			c1.4-0.6,2.8-0.9,4.3-0.9h2.7c1.5,0,3,0.3,4.3,0.9c1.4,0.6,2.6,1.4,3.6,2.4c1,1,1.8,2.2,2.4,3.6c0.6,1.4,0.9,2.8,0.9,4.3v27.6
			H196.4z M193.3,44.1h-9.7c-0.9,0-1.8,0.2-2.6,0.5c-0.8,0.3-1.5,0.8-2.1,1.4c-0.6,0.6-1.1,1.3-1.4,2.1c-0.3,0.8-0.5,1.7-0.5,2.6
			v1.6c0,0.9,0.2,1.8,0.5,2.6c0.3,0.8,0.8,1.5,1.4,2.1c0.6,0.6,1.3,1.1,2.1,1.4c0.8,0.3,1.7,0.5,2.6,0.5h3c0.9,0,1.8-0.2,2.6-0.5
			c0.8-0.3,1.5-0.8,2.1-1.4c0.6-0.6,1.1-1.3,1.4-2.1c0.3-0.8,0.5-1.7,0.5-2.6V44.1z"/>
		<path class="st0" d="M231.6,56.4c-0.6,1.4-1.4,2.5-2.4,3.6c-1,1-2.2,1.8-3.6,2.4c-1.4,0.6-2.8,0.9-4.3,0.9h-3
			c-1.5,0-3-0.3-4.3-0.9c-1.4-0.6-2.6-1.4-3.6-2.4c-1-1-1.8-2.2-2.4-3.6c-0.6-1.4-0.9-2.8-0.9-4.3V34.9c0-1.5,0.3-3,0.9-4.3
			c0.6-1.4,1.4-2.5,2.4-3.6c1-1,2.2-1.8,3.6-2.4c1.4-0.6,2.8-0.9,4.3-0.9h3c1.5,0,3,0.3,4.3,0.9c1.4,0.6,2.6,1.4,3.6,2.4
			c1,1,1.8,2.2,2.4,3.6c0.6,1.4,0.9,2.8,0.9,4.3v1.5l-4.6,0.7v-2.5c0-0.9-0.2-1.8-0.5-2.6c-0.3-0.8-0.8-1.5-1.4-2.1
			s-1.3-1.1-2.1-1.4c-0.8-0.3-1.7-0.5-2.6-0.5h-3c-0.9,0-1.8,0.2-2.6,0.5c-0.8,0.3-1.5,0.8-2.1,1.4s-1.1,1.3-1.4,2.1
			c-0.3,0.8-0.5,1.7-0.5,2.6v17.7c0,0.9,0.2,1.8,0.5,2.6c0.3,0.8,0.8,1.5,1.4,2.1s1.3,1.1,2.1,1.4c0.8,0.3,1.7,0.5,2.6,0.5h3
			c0.9,0,1.8-0.2,2.6-0.5c0.8-0.3,1.5-0.8,2.1-1.4s1.1-1.3,1.4-2.1c0.3-0.8,0.5-1.7,0.5-2.6v-2.5l4.6,0.7v1.5
			C232.5,53.6,232.2,55.1,231.6,56.4z"/>
		<path class="st0" d="M242.4,62.5V9.3h4.6v53.2H242.4z M263.4,62.5l-15.5-19l15.5-19h5.9l-15.9,19l15.9,19H263.4z"/>
		<path class="st0" d="M323.7,50.2c0,1.8-0.4,3.5-1.1,5.1c-0.7,1.6-1.7,3-2.9,4.2c-1.2,1.2-2.7,2.1-4.3,2.8s-3.3,1-5.1,1h-3.8
			c-1.8,0-3.5-0.3-5.1-1c-1.6-0.7-3-1.6-4.3-2.8c-1.2-1.2-2.2-2.6-2.9-4.2c-0.7-1.6-1.1-3.3-1.1-5.1v-2.1l4.8-0.8v2.9
			c0,1.2,0.2,2.3,0.7,3.3c0.5,1,1.1,1.9,2,2.7c0.8,0.8,1.8,1.4,2.8,1.8c1.1,0.4,2.2,0.7,3.4,0.7h3.3c1.2,0,2.3-0.2,3.4-0.7
			c1.1-0.4,2-1.1,2.8-1.8c0.8-0.8,1.5-1.7,2-2.7c0.5-1,0.7-2.1,0.7-3.3v-1.6c0-1.8-0.4-3.4-1.1-4.6c-0.7-1.2-1.7-2.2-2.9-3.1
			s-2.5-1.6-4-2.2c-1.5-0.6-3-1.2-4.6-1.8c-1.6-0.6-3.1-1.2-4.6-2c-1.5-0.7-2.8-1.6-4-2.7s-2.1-2.4-2.9-4c-0.7-1.6-1.1-3.5-1.1-5.8
			v-1c0-1.8,0.3-3.5,1-5.1c0.7-1.6,1.6-3,2.8-4.2s2.6-2.1,4.2-2.8c1.6-0.7,3.3-1,5.1-1h3.4c1.8,0,3.5,0.3,5.1,1
			c1.6,0.7,3,1.6,4.2,2.8s2.1,2.6,2.8,4.2c0.7,1.6,1,3.3,1,5.1V23l-4.8,0.8v-2.2c0-1.2-0.2-2.3-0.7-3.3c-0.4-1-1.1-1.9-1.8-2.7
			c-0.8-0.8-1.7-1.4-2.7-1.8c-1-0.4-2.1-0.7-3.3-0.7h-3c-1.2,0-2.3,0.2-3.3,0.7c-1,0.4-1.9,1.1-2.7,1.8c-0.8,0.8-1.4,1.7-1.8,2.7
			c-0.4,1-0.7,2.1-0.7,3.3v1c0,1.7,0.4,3.1,1.1,4.3c0.7,1.2,1.7,2.2,2.9,3c1.2,0.8,2.5,1.5,4,2.2c1.5,0.6,3,1.2,4.6,1.9
			c1.6,0.6,3.1,1.3,4.6,2.1c1.5,0.8,2.8,1.7,4,2.8c1.2,1.1,2.1,2.4,2.9,4c0.7,1.6,1.1,3.5,1.1,5.8V50.2z"/>
		<path class="st0" d="M346.3,62.5c-1.4,0-2.7-0.3-3.9-0.8c-1.2-0.5-2.3-1.2-3.2-2.2c-0.9-0.9-1.6-2-2.2-3.2
			c-0.5-1.2-0.8-2.5-0.8-3.9V28.9h-6.8v-4.3h6.8v-9.1l4.6-0.7v9.9h9.7v4.3h-9.7v23.9c0,0.8,0.1,1.5,0.4,2.1c0.3,0.7,0.7,1.2,1.2,1.7
			c0.5,0.5,1.1,0.9,1.7,1.2c0.7,0.3,1.4,0.4,2.2,0.4h4.2v4.3H346.3z"/>
		<path class="st0" d="M383.4,56.4c-0.6,1.4-1.4,2.5-2.4,3.6c-1,1-2.2,1.8-3.6,2.4c-1.4,0.6-2.8,0.9-4.3,0.9h-3
			c-1.5,0-3-0.3-4.3-0.9c-1.4-0.6-2.6-1.4-3.6-2.4c-1-1-1.8-2.2-2.4-3.6c-0.6-1.4-0.9-2.8-0.9-4.3V34.9c0-1.5,0.3-3,0.9-4.3
			c0.6-1.4,1.4-2.5,2.4-3.6c1-1,2.2-1.8,3.6-2.4c1.4-0.6,2.8-0.9,4.3-0.9h3c1.5,0,3,0.3,4.3,0.9c1.4,0.6,2.6,1.4,3.6,2.4
			c1,1,1.8,2.2,2.4,3.6c0.6,1.4,0.9,2.8,0.9,4.3v17.1C384.3,53.6,384,55.1,383.4,56.4z M379.7,34.7c0-0.9-0.2-1.8-0.5-2.6
			c-0.3-0.8-0.8-1.5-1.4-2.1s-1.3-1.1-2.1-1.4c-0.8-0.3-1.7-0.5-2.6-0.5h-3c-0.9,0-1.8,0.2-2.6,0.5c-0.8,0.3-1.5,0.8-2.1,1.4
			s-1.1,1.3-1.4,2.1c-0.3,0.8-0.5,1.7-0.5,2.6v17.7c0,0.9,0.2,1.8,0.5,2.6c0.3,0.8,0.8,1.5,1.4,2.1s1.3,1.1,2.1,1.4
			c0.8,0.3,1.7,0.5,2.6,0.5h3c0.9,0,1.8-0.2,2.6-0.5c0.8-0.3,1.5-0.8,2.1-1.4s1.1-1.3,1.4-2.1c0.3-0.8,0.5-1.7,0.5-2.6V34.7z"/>
		<path class="st0" d="M418,56.4c-0.6,1.4-1.4,2.5-2.4,3.6c-1,1-2.2,1.8-3.6,2.4c-1.4,0.6-2.8,0.9-4.3,0.9h-3c-1.5,0-3-0.3-4.3-0.9
			c-1.4-0.6-2.6-1.4-3.6-2.4c-1-1-1.8-2.2-2.4-3.6c-0.6-1.4-0.9-2.8-0.9-4.3V9.3h4.6v18.4c1-1.2,2.3-2.2,3.8-2.9c1.5-0.7,3-1,4.8-1
			h1.2c1.5,0,3,0.3,4.3,0.9c1.4,0.6,2.6,1.4,3.6,2.4c1,1,1.8,2.2,2.4,3.6c0.6,1.4,0.9,2.8,0.9,4.3v17.1
			C418.9,53.6,418.6,55.1,418,56.4z M414.3,34.7c0-0.9-0.2-1.8-0.5-2.6c-0.3-0.8-0.8-1.5-1.4-2.1c-0.6-0.6-1.3-1.1-2.1-1.4
			c-0.8-0.3-1.7-0.5-2.6-0.5h-3c-0.9,0-1.8,0.2-2.6,0.5c-0.8,0.3-1.5,0.8-2.1,1.4c-0.6,0.6-1.1,1.3-1.4,2.1
			c-0.3,0.8-0.5,1.7-0.5,2.6v17.7c0,0.9,0.2,1.8,0.5,2.6c0.3,0.8,0.8,1.5,1.4,2.1c0.6,0.6,1.3,1.1,2.1,1.4c0.8,0.3,1.7,0.5,2.6,0.5
			h3c0.9,0,1.8-0.2,2.6-0.5c0.8-0.3,1.5-0.8,2.1-1.4c0.6-0.6,1.1-1.3,1.4-2.1c0.3-0.8,0.5-1.7,0.5-2.6V34.7z"/>
		<path class="st0" d="M452.6,56.4c-0.6,1.4-1.4,2.5-2.4,3.6c-1,1-2.2,1.8-3.6,2.4c-1.4,0.6-2.8,0.9-4.3,0.9h-3
			c-1.5,0-3-0.3-4.3-0.9c-1.4-0.6-2.6-1.4-3.6-2.4c-1-1-1.8-2.2-2.4-3.6c-0.6-1.4-0.9-2.8-0.9-4.3V9.3h4.6v18.4
			c1-1.2,2.3-2.2,3.8-2.9c1.5-0.7,3-1,4.8-1h1.2c1.5,0,3,0.3,4.3,0.9c1.4,0.6,2.6,1.4,3.6,2.4c1,1,1.8,2.2,2.4,3.6
			c0.6,1.4,0.9,2.8,0.9,4.3v17.1C453.4,53.6,453.1,55.1,452.6,56.4z M448.9,34.7c0-0.9-0.2-1.8-0.5-2.6c-0.3-0.8-0.8-1.5-1.4-2.1
			s-1.3-1.1-2.1-1.4c-0.8-0.3-1.7-0.5-2.6-0.5h-3c-0.9,0-1.8,0.2-2.6,0.5c-0.8,0.3-1.5,0.8-2.1,1.4s-1.1,1.3-1.4,2.1
			c-0.3,0.8-0.5,1.7-0.5,2.6v17.7c0,0.9,0.2,1.8,0.5,2.6c0.3,0.8,0.8,1.5,1.4,2.1s1.3,1.1,2.1,1.4c0.8,0.3,1.7,0.5,2.6,0.5h3
			c0.9,0,1.8-0.2,2.6-0.5c0.8-0.3,1.5-0.8,2.1-1.4s1.1-1.3,1.4-2.1c0.3-0.8,0.5-1.7,0.5-2.6V34.7z"/>
		<path class="st0" d="M487.1,56.4c-0.6,1.4-1.4,2.5-2.4,3.6c-1,1-2.2,1.8-3.6,2.4c-1.4,0.6-2.8,0.9-4.3,0.9h-3
			c-1.5,0-3-0.3-4.3-0.9c-1.4-0.6-2.6-1.4-3.6-2.4c-1-1-1.8-2.2-2.4-3.6c-0.6-1.4-0.9-2.8-0.9-4.3V34.9c0-1.5,0.3-3,0.9-4.3
			c0.6-1.4,1.4-2.5,2.4-3.6c1-1,2.2-1.8,3.6-2.4c1.4-0.6,2.8-0.9,4.3-0.9h3c1.5,0,3,0.3,4.3,0.9c1.4,0.6,2.6,1.4,3.6,2.4
			c1,1,1.8,2.2,2.4,3.6c0.6,1.4,0.9,2.8,0.9,4.3v8.9h-20.9v8.5c0,0.9,0.2,1.8,0.5,2.6c0.3,0.8,0.8,1.5,1.4,2.1s1.3,1.1,2.1,1.4
			c0.8,0.3,1.7,0.5,2.6,0.5h3c0.9,0,1.8-0.2,2.6-0.5c0.8-0.3,1.5-0.8,2.1-1.4s1.1-1.3,1.4-2.1c0.3-0.8,0.5-1.7,0.5-2.6v-2.5l4.6,0.7
			v1.5C488,53.6,487.7,55.1,487.1,56.4z M483.4,34.7c0-0.9-0.2-1.8-0.5-2.6c-0.3-0.8-0.8-1.5-1.4-2.1s-1.3-1.1-2.1-1.4
			c-0.8-0.3-1.7-0.5-2.6-0.5h-3c-0.9,0-1.8,0.2-2.6,0.5c-0.8,0.3-1.5,0.8-2.1,1.4s-1.1,1.3-1.4,2.1c-0.3,0.8-0.5,1.7-0.5,2.6v5.6
			h16.3V34.7z"/>
	</g>
	<g>
		<path class="st0" d="M229.7,161.9c-0.5,1.2-1.3,2.3-2.2,3.2c-0.9,0.9-2,1.6-3.3,2.2c-1.2,0.5-2.6,0.8-4,0.8h-13.1v-41.4h13.1
			c1.4,0,2.7,0.3,4,0.8c1.2,0.5,2.3,1.3,3.3,2.2c0.9,0.9,1.7,2,2.2,3.2c0.5,1.2,0.8,2.6,0.8,4v21
			C230.5,159.4,230.2,160.7,229.7,161.9z M226.8,136.9c0-0.9-0.2-1.8-0.5-2.6c-0.3-0.8-0.8-1.5-1.4-2.1c-0.6-0.6-1.3-1.1-2.1-1.4
			c-0.8-0.3-1.7-0.5-2.6-0.5h-9.2v34.3h9.2c0.9,0,1.8-0.2,2.6-0.5c0.8-0.3,1.5-0.8,2.1-1.4c0.6-0.6,1.1-1.3,1.4-2.1
			c0.3-0.8,0.5-1.7,0.5-2.6V136.9z"/>
		<path class="st0" d="M257.3,163.4c-0.5,1.1-1.1,2-1.9,2.8c-0.8,0.8-1.7,1.4-2.8,1.9c-1.1,0.5-2.2,0.7-3.4,0.7h-2.4
			c-1.2,0-2.3-0.2-3.4-0.7c-1.1-0.5-2-1.1-2.8-1.9c-0.8-0.8-1.4-1.7-1.9-2.8c-0.5-1.1-0.7-2.2-0.7-3.4v-13.3c0-1.2,0.2-2.3,0.7-3.4
			c0.5-1.1,1.1-2,1.9-2.8c0.8-0.8,1.7-1.4,2.8-1.9c1.1-0.5,2.2-0.7,3.4-0.7h2.4c1.2,0,2.3,0.2,3.4,0.7c1.1,0.5,2,1.1,2.8,1.9
			c0.8,0.8,1.4,1.7,1.9,2.8c0.5,1.1,0.7,2.2,0.7,3.4v7h-16.2v6.6c0,0.7,0.1,1.4,0.4,2c0.3,0.6,0.6,1.2,1.1,1.6
			c0.5,0.5,1,0.8,1.6,1.1c0.6,0.3,1.3,0.4,2,0.4h2.4c0.7,0,1.4-0.1,2-0.4c0.6-0.3,1.2-0.6,1.6-1.1c0.5-0.5,0.8-1,1.1-1.6
			c0.3-0.6,0.4-1.3,0.4-2v-2l3.6,0.6v1.2C257.9,161.2,257.7,162.3,257.3,163.4z M254.4,146.5c0-0.7-0.1-1.4-0.4-2
			c-0.3-0.6-0.6-1.2-1.1-1.6c-0.5-0.5-1-0.8-1.6-1.1c-0.6-0.3-1.3-0.4-2-0.4h-2.4c-0.7,0-1.4,0.1-2,0.4c-0.6,0.3-1.2,0.6-1.6,1.1
			c-0.5,0.5-0.8,1-1.1,1.6c-0.3,0.6-0.4,1.3-0.4,2v4.4h12.7V146.5z"/>
		<path class="st0" d="M274.3,168.1h-1.8l-10.5-29.5h3.6l7.7,22.4l0.1,1.5l0.1-1.5l7.7-22.4h3.6L274.3,168.1z"/>
		<path class="st0" d="M308,163.4c-0.5,1.1-1.1,2-1.9,2.8c-0.8,0.8-1.7,1.4-2.8,1.9c-1.1,0.5-2.2,0.7-3.4,0.7h-2.4
			c-1.2,0-2.3-0.2-3.4-0.7c-1.1-0.5-2-1.1-2.8-1.9c-0.8-0.8-1.4-1.7-1.9-2.8c-0.5-1.1-0.7-2.2-0.7-3.4v-13.3c0-1.2,0.2-2.3,0.7-3.4
			c0.5-1.1,1.1-2,1.9-2.8c0.8-0.8,1.7-1.4,2.8-1.9s2.2-0.7,3.4-0.7h2.4c1.2,0,2.3,0.2,3.4,0.7c1.1,0.5,2,1.1,2.8,1.9
			c0.8,0.8,1.4,1.7,1.9,2.8c0.5,1.1,0.7,2.2,0.7,3.4v7h-16.2v6.6c0,0.7,0.1,1.4,0.4,2c0.3,0.6,0.6,1.2,1.1,1.6
			c0.5,0.5,1,0.8,1.6,1.1c0.6,0.3,1.3,0.4,2,0.4h2.4c0.7,0,1.4-0.1,2-0.4c0.6-0.3,1.2-0.6,1.6-1.1c0.5-0.5,0.8-1,1.1-1.6
			c0.3-0.6,0.4-1.3,0.4-2v-2l3.6,0.6v1.2C308.7,161.2,308.5,162.3,308,163.4z M305.2,146.5c0-0.7-0.1-1.4-0.4-2
			c-0.3-0.6-0.6-1.2-1.1-1.6c-0.5-0.5-1-0.8-1.6-1.1c-0.6-0.3-1.3-0.4-2-0.4h-2.4c-0.7,0-1.4,0.1-2,0.4c-0.6,0.3-1.2,0.6-1.6,1.1
			c-0.5,0.5-0.8,1-1.1,1.6c-0.3,0.6-0.4,1.3-0.4,2v4.4h12.7V146.5z"/>
		<path class="st0" d="M317,168.1v-41.4h3.6v41.4H317z"/>
		<path class="st0" d="M347.4,163.4c-0.5,1.1-1.1,2-1.9,2.8c-0.8,0.8-1.7,1.4-2.8,1.9c-1.1,0.5-2.2,0.7-3.4,0.7H337
			c-1.2,0-2.3-0.2-3.4-0.7c-1.1-0.5-2-1.1-2.8-1.9c-0.8-0.8-1.4-1.7-1.9-2.8c-0.5-1.1-0.7-2.2-0.7-3.4v-13.3c0-1.2,0.2-2.3,0.7-3.4
			c0.5-1.1,1.1-2,1.9-2.8c0.8-0.8,1.7-1.4,2.8-1.9c1.1-0.5,2.2-0.7,3.4-0.7h2.4c1.2,0,2.3,0.2,3.4,0.7c1.1,0.5,2,1.1,2.8,1.9
			c0.8,0.8,1.4,1.7,1.9,2.8c0.5,1.1,0.7,2.2,0.7,3.4V160C348,161.2,347.8,162.3,347.4,163.4z M344.5,146.5c0-0.7-0.1-1.4-0.4-2
			c-0.3-0.6-0.6-1.2-1.1-1.6c-0.5-0.5-1-0.8-1.6-1.1c-0.6-0.3-1.3-0.4-2-0.4H337c-0.7,0-1.4,0.1-2,0.4c-0.6,0.3-1.2,0.6-1.6,1.1
			c-0.5,0.5-0.8,1-1.1,1.6c-0.3,0.6-0.4,1.3-0.4,2v13.7c0,0.7,0.1,1.4,0.4,2c0.3,0.6,0.6,1.2,1.1,1.6c0.5,0.5,1,0.8,1.6,1.1
			c0.6,0.3,1.3,0.4,2,0.4h2.4c0.7,0,1.4-0.1,2-0.4c0.6-0.3,1.2-0.6,1.6-1.1c0.5-0.5,0.8-1,1.1-1.6c0.3-0.6,0.4-1.3,0.4-2V146.5z"/>
		<path class="st0" d="M374.2,163.4c-0.5,1.1-1.1,2-1.9,2.8c-0.8,0.8-1.7,1.4-2.8,1.9c-1.1,0.5-2.2,0.7-3.4,0.7h-0.9
			c-1.3,0-2.6-0.3-3.7-0.8c-1.1-0.5-2.1-1.3-2.9-2.3v14.3h-3.6v-41.4h1.2l1.9,3c0.8-1.1,1.8-2,3-2.6c1.2-0.6,2.6-1,4-1h0.9
			c1.2,0,2.3,0.2,3.4,0.7s2,1.1,2.8,1.9c0.8,0.8,1.4,1.7,1.9,2.8c0.5,1.1,0.7,2.2,0.7,3.4V160C374.9,161.2,374.7,162.3,374.2,163.4z
			 M371.4,146.5c0-0.7-0.1-1.4-0.4-2c-0.3-0.6-0.6-1.2-1.1-1.6c-0.5-0.5-1-0.8-1.6-1.1c-0.6-0.3-1.3-0.4-2-0.4h-2.4
			c-0.7,0-1.4,0.1-2,0.4c-0.6,0.3-1.2,0.6-1.6,1.1c-0.5,0.5-0.8,1-1.1,1.6c-0.3,0.6-0.4,1.3-0.4,2v13.7c0,0.7,0.1,1.4,0.4,2
			c0.3,0.6,0.6,1.2,1.1,1.6c0.5,0.5,1,0.8,1.6,1.1c0.6,0.3,1.3,0.4,2,0.4h2.4c0.7,0,1.4-0.1,2-0.4c0.6-0.3,1.2-0.6,1.6-1.1
			c0.5-0.5,0.8-1,1.1-1.6c0.3-0.6,0.4-1.3,0.4-2V146.5z"/>
		<path class="st0" d="M401.1,163.4c-0.5,1.1-1.1,2-1.9,2.8c-0.8,0.8-1.7,1.4-2.8,1.9c-1.1,0.5-2.2,0.7-3.4,0.7h-2.4
			c-1.2,0-2.3-0.2-3.4-0.7c-1.1-0.5-2-1.1-2.8-1.9c-0.8-0.8-1.4-1.7-1.9-2.8c-0.5-1.1-0.7-2.2-0.7-3.4v-13.3c0-1.2,0.2-2.3,0.7-3.4
			c0.5-1.1,1.1-2,1.9-2.8c0.8-0.8,1.7-1.4,2.8-1.9c1.1-0.5,2.2-0.7,3.4-0.7h2.4c1.2,0,2.3,0.2,3.4,0.7c1.1,0.5,2,1.1,2.8,1.9
			c0.8,0.8,1.4,1.7,1.9,2.8c0.5,1.1,0.7,2.2,0.7,3.4v7h-16.2v6.6c0,0.7,0.1,1.4,0.4,2c0.3,0.6,0.6,1.2,1.1,1.6
			c0.5,0.5,1,0.8,1.6,1.1c0.6,0.3,1.3,0.4,2,0.4h2.4c0.7,0,1.4-0.1,2-0.4c0.6-0.3,1.2-0.6,1.6-1.1c0.5-0.5,0.8-1,1.1-1.6
			c0.3-0.6,0.4-1.3,0.4-2v-2l3.6,0.6v1.2C401.8,161.2,401.6,162.3,401.1,163.4z M398.2,146.5c0-0.7-0.1-1.4-0.4-2
			c-0.3-0.6-0.6-1.2-1.1-1.6c-0.5-0.5-1-0.8-1.6-1.1c-0.6-0.3-1.3-0.4-2-0.4h-2.4c-0.7,0-1.4,0.1-2,0.4c-0.6,0.3-1.2,0.6-1.6,1.1
			c-0.5,0.5-0.8,1-1.1,1.6c-0.3,0.6-0.4,1.3-0.4,2v4.4h12.7V146.5z"/>
		<path class="st0" d="M417.6,142c-0.7,0-1.4,0.1-2,0.4c-0.6,0.3-1.2,0.6-1.6,1.1c-0.5,0.5-0.8,1-1.1,1.6s-0.4,1.3-0.4,2v21h-3.6
			v-29.5h1.2l1.9,3c0.8-1.1,1.8-2,3-2.6c1.2-0.6,2.6-1,4-1h2.1v4H417.6z"/>
	</g>
	<line class="st1" x1="48.2" y1="94.3" x2="575.5" y2="94.3"/>
</g>
</svg>
