<?xml version="1.0" encoding="utf-8"?>
<!-- Generator: Adobe Illustrator 20.1.0, SVG Export Plug-In . SVG Version: 6.00 Build 0)  -->
<svg version="1.1" id="Layer_1" xmlns="http://www.w3.org/2000/svg" xmlns:xlink="http://www.w3.org/1999/xlink" x="0px" y="0px"
	 viewBox="0 0 930.1 1031.6" style="enable-background:new 0 0 930.1 1031.6;" xml:space="preserve">
<style type="text/css">
	.st0{fill:none;stroke:#446C82;stroke-width:4.6344;stroke-miterlimit:10;}
	.st1{fill:none;stroke:#C65900;stroke-width:4.6344;stroke-miterlimit:10;}
    
    .st0 {
        stroke-dasharray: 2000;
        stroke-dashoffset: 0;
        animation: dash1 5s linear forwards;
    }
    
    @-webkit-keyframes dash1 {
        0% {
            stroke-dashoffset: 2400;
            fill: transparent;
        }
        75% {
            stroke-dashoffset: 0;
            fill: transparent;
        }
        100% {
            stroke-dashoffset: 0;
            fill: #5382A1;
        }
    }
    
    .st1 {
        stroke-dasharray: 2000;
        stroke-dashoffset: 0;
        animation: dash2 5s linear forwards;
    }
    
    @-webkit-keyframes dash2 {
        0% {
            stroke-dashoffset: 2000;
        }
        75% {
            stroke-dashoffset: 0;
            fill: transparent;
        }
        100% {
            stroke-dashoffset: 0;
            fill: #E76F00;
        }
    }
</style>
<title>icon-square-big</title>
<path class="st0" d="M335.1,786.6c0,0-37.9,22,26.9,29.5c78.5,9,118.6,7.7,205.1-8.7c0,0,22.7,14.3,54.5,26.6
	C427.7,917.1,182.7,829.1,335.1,786.6"/>
<path class="st0" d="M311.4,678.1c0,0-42.5,31.4,22.4,38.1c83.9,8.7,150.1,9.4,264.7-12.7c0,0,15.8,16.1,40.8,24.9
	C404.7,797,143.6,733.8,311.4,678.1"/>
<path class="st1" d="M511.1,494.2c47.8,55-12.6,104.5-12.6,104.5s121.3-62.6,65.6-141.1c-52-73.1-91.9-109.5,124.1-234.8
	C688.3,222.8,349.1,307.5,511.1,494.2"/>
<path class="st0" d="M767.6,866.8c0,0,28,23.1-30.9,40.9c-111.9,33.9-465.9,44.1-564.2,1.4c-35.3-15.4,30.9-36.7,51.8-41.2
	c21.7-4.7,34.2-3.8,34.2-3.8c-39.3-27.7-254.1,54.4-109.1,77.9C544.8,1006,870.1,913.1,767.6,866.8"/>
<path class="st0" d="M353.3,565.8c0,0-180,42.8-63.8,58.3c49.1,6.6,147,5.1,238.1-2.6c74.5-6.3,149.3-19.6,149.3-19.6
	s-26.3,11.3-45.3,24.2c-182.8,48.1-536,25.7-434.3-23.5C283.3,561,353.3,565.8,353.3,565.8"/>
<path class="st0" d="M676.2,746.3c185.8-96.6,99.9-189.4,39.9-176.9c-14.7,3.1-21.3,5.7-21.3,5.7s5.5-8.5,15.9-12.2
	c118.7-41.7,209.9,123-38.3,188.3C672.5,751.2,675.4,748.6,676.2,746.3"/>
<path class="st1" d="M564.2,20.5c0,0,102.9,103-97.6,261.3c-160.8,127-36.7,199.4-0.1,282.2c-93.9-84.7-162.8-159.3-116.5-228.6
	C417.8,233.4,605.7,184.1,564.2,20.5"/>
<path class="st0" d="M371.5,1008c178.4,11.4,452.3-6.3,458.8-90.7c0,0-12.5,32-147.4,57.4c-152.3,28.7-340.1,25.3-451.4,6.9
	C231.5,981.6,254.3,1000.5,371.5,1008"/>
</svg>
