<?xml version="1.0" encoding="utf-8"?>
<!-- Generator: Adobe Illustrator 20.1.0, SVG Export Plug-In . SVG Version: 6.00 Build 0)  -->
<svg version="1.1" id="Layer_1" xmlns="http://www.w3.org/2000/svg" xmlns:xlink="http://www.w3.org/1999/xlink" x="0px" y="0px"
	 viewBox="0 0 298 274" style="enable-background:new 0 0 298 274;" xml:space="preserve">
<style type="text/css">
	.st0{fill:#E42E16;stroke:#E42E16;stroke-width:2;stroke-miterlimit:10;}
    .st0 {
        stroke-dasharray: 1500;
        stroke-dashoffset: 0;
        animation: dash 5s linear forwards;
    }
    
    @-webkit-keyframes dash {
        0% {
            stroke-dashoffset: 1500;
            fill: transparent;
        }
        75% {
            stroke-dashoffset: 0;
            fill: transparent;
        }
        100% {
            stroke-dashoffset: 0;
            fill: #E42E16;
        }
    }
</style>
<title>icon-square-big</title>
<g>
	<path class="st0" d="M238.6,237.8c3.5-0.1,6.7-1.5,10-2.5c3.3-2,6.1-4.7,8-8c0.3-0.8,0.6-1.7,1-2.5c0.2-3,0.2-6,0-9.1
		c-1-1.5-2-3.2-3.4-4.7c-1.7-0.8-3.3-1.6-4.9-2.4c-2.1-0.2-4-1-6.1-0.9h-33.9c-4.5-0.1-9.2-1.9-11.7-5.8c-0.5-1-1-2-1.4-3.1
		c-1-2.3-1.7-4.7-2.6-7.1c-0.1-0.4-0.3-1.1-0.3-1.4c-1-2-1.7-4.2-2.4-6.3c-1.2-2.8-2.1-5.7-3.1-8.6c-1.3-2.8-2.1-5.7-3.1-8.6
		c-1.3-2.8-2.1-5.7-3.1-8.6c-1.3-2.8-2.1-5.7-3.1-8.6c-1.3-2.8-2.1-5.7-3.1-8.6c-1.2-2.8-2.2-5.7-3.1-8.6c-0.5-1.1-1-2.1-1.5-3.2
		c4.5-4.8,9.4-9.2,13.6-14.2c3.9-4.1,8-8.1,11.9-12.2c4.9-5.9,10.7-11.1,15.9-16.7c3.5-4.3,7.6-8.1,11.4-12
		c3.4-3.2,6.1-6.9,9.3-10.2c0.5-0.8,1.1-1.6,1.6-2.4c1.2-2.1,2.2-4.3,3.3-6.4c0-3.1,0.6-6.4-0.7-9.3c-1.4-3.8-4.8-6.3-8.3-8
		c-4.4-0.4-9-0.5-13,1.8c-1.6,1.1-3.2,2.1-4.8,3.2C201,52,192.3,62.5,182.5,72c-5.4,6.6-11.9,12.1-17.3,18.6c-4.6,5-9.7,9.5-14,14.8
		c-2.7,2.9-5.7,5.5-8.1,8.7c1.4-2.4,2.2-5,3.4-7.4c0.7-2.1,1.4-4.2,2.4-6.3c1.8-5.8,3.6-11.7,4.1-17.7c0.2-5.5,0.3-11-0.9-16.3
		c-0.9-2.3-1.8-4.6-2.7-7c-3.6-6.4-8.9-11.6-14.7-15.9c-4.7-2.7-9.7-4.7-14.8-6.3c-1.6-0.1-3.1-0.5-4.6-0.8
		c-9.4-0.5-19-0.7-27.9,2.4c-1.5,0.6-3.1,1.1-4.7,1.6c-3.1,1.5-6.3,3.1-9.3,4.7c-0.8,0.6-1.6,1.1-2.4,1.6
		c-6.9,4.8-12.9,10.7-18,17.2c-1,1.6-2.1,3.1-3.1,4.7c-1,1.8-2.1,3.6-3.2,5.4c-0.7,1.8-1.5,3.7-2.3,5.5c-2.2,5.6-3,11.5-4,17.3
		c-0.5,7.5,0.4,15,2.5,22.2c0.9,1.8,1.6,3.7,2.3,5.6c3.7,6.3,8.1,12.3,14.3,16.5c1.4,0.7,2.7,1.5,4,2.3c1.3,0.5,2.6,1,3.9,1.6
		c6,1.5,12.6,1.8,18.6,0.1c6.6-2.9,11.6-9.8,10.5-17.2c-0.4-0.8-0.7-1.6-1-2.5c-0.2-0.4-0.5-1.3-0.7-1.7c-1.9-1.9-4-3.6-6.4-4.8
		c-1.7-0.5-3.3-1.2-4.9-1.9c-3.9-1.8-7.2-4.8-9.4-8.5c-1.6-2.8-1.8-5.9-2-9.1c0.4-2.3,0.1-4.7,0.8-6.9c2-9.5,8.9-17.3,16.9-22.4
		c1-0.6,2-1.1,3.1-1.6c4.6-2.1,9.9-2.5,14.8-1.8c4.8,1.1,8.9,4.3,11.3,8.5c1.6,4,0.9,8.6-0.2,12.7c-1.5,5.6-3.5,11.1-5.7,16.5
		c-0.5,1.3-1,2.6-1.6,3.9c-0.5,1.3-1,2.6-1.6,3.9c-0.5,1.3-1,2.6-1.6,3.9c-0.5,1.3-1,2.6-1.6,3.9c-0.5,1.3-1,2.6-1.6,3.9
		c-0.5,1.3-1,2.6-1.6,3.9c-0.5,1.3-1,2.6-1.6,3.9c-0.5,1.3-1,2.6-1.6,3.9c-1.7,4.4-3.4,8.9-5.4,13.2c-0.5,1.3-1,2.6-1.5,3.9
		c-0.5,1.3-1,2.6-1.6,3.9c-0.5,1.3-1,2.6-1.6,3.9c-0.5,1.3-1,2.6-1.6,3.9c-0.5,1.3-1,2.6-1.6,3.9c-0.5,1.3-1,2.6-1.6,3.9
		c-0.5,1.3-1,2.6-1.6,3.9c-0.5,1.3-1,2.6-1.6,3.9c-0.5,1.3-1,2.6-1.6,3.9c-2.2,4.8-3.3,10.1-2.5,15.3c0.6,1.1,1.2,2.2,1.8,3.3
		c1.8,2,4,3.5,6.3,4.8c1.3,0.2,2.6,0.6,3.9,0.9c3.2,0.5,6.2-0.8,9.3-1.7c0.4-0.2,1.1-0.6,1.5-0.9c4-2.5,6.8-6.4,9.3-10.4
		c0.5-1.1,1-2.1,1.5-3.2c0.6-1.5,1.2-3.1,1.9-4.6c0.5-1.3,1-2.6,1.6-3.9c0.5-1.3,1-2.6,1.6-3.9c0.5-1.3,1-2.6,1.6-3.9
		c0.5-1.3,1-2.6,1.6-3.9c0.5-1.3,1-2.6,1.6-3.9c0.5-1.3,1-2.6,1.6-3.9c1.2-3.2,2.4-6.3,3.9-9.3c0.5-1.3,1-2.6,1.5-3.9
		c0.5-1.3,1-2.6,1.6-3.9c0.5-1.3,1-2.6,1.6-3.9c0.5-1.3,1-2.6,1.6-3.9c0.5-1.3,1-2.6,1.5-3.9c0.5-1.3,1.1-2.6,1.7-3.9
		c0.2-1,0.4-2,0.6-3c1.4,3.3,2.6,6.6,3.7,10c0.9,2,1.7,4.1,2.3,6.3c1.1,2.3,1.8,4.7,2.7,7.1l0.3,1.4c1,2,1.7,4.1,2.4,6.3
		c1.2,2.8,2.1,5.7,3.1,8.5c1.3,2.8,2.1,5.7,3.1,8.6c0.9,2,1.6,4.1,2.3,6.3c1,2.3,1.8,4.7,2.7,7.1l0.3,1.4c1.3,2.8,2.2,5.7,3.2,8.6
		c1.8,4.4,3.4,8.9,5,13.4c0.1,0.5,0.2,0.9,0.3,1.4c0.7,1.5,1.4,3.1,2,4.6c0.9,1.9,1.8,3.7,2.8,5.6c2.2,3,4.1,6.5,7.4,8.4
		c2.6,1.8,5.6,2.5,8.5,3.6c2.8-0.1,5.5,1,8.3,0.9H238.6z"/>
</g>
</svg>
