<?xml version="1.0" encoding="utf-8"?>
<!-- Generator: Adobe Illustrator 20.1.0, SVG Export Plug-In . SVG Version: 6.00 Build 0)  -->
<svg version="1.1" id="Layer_1" xmlns="http://www.w3.org/2000/svg" xmlns:xlink="http://www.w3.org/1999/xlink" x="0px" y="0px"
	 viewBox="0 0 300 400" style="enable-background:new 0 0 300 400;" xml:space="preserve">
<style type="text/css">
	.st0{fill:none;stroke:#00618A;stroke-width:1;stroke-miterlimit:10;}
	.st1{fill:none;stroke:#00618A;stroke-width:1;stroke-miterlimit:10;}
    
    .st0 {
        stroke-dasharray: 2000;
        stroke-dashoffset: 0;
        animation: dash1 5s linear forwards;
    }
    
    @-webkit-keyframes dash1 {
        0% {
            stroke-dashoffset: 2000;
            fill: transparent;
        }
        75% {
            stroke-dashoffset: 0;
            fill: transparent;
        }
        100% {
            stroke-dashoffset: 0;
            fill: #00618A;
        }
    }
    
    .st1 {
        stroke-dasharray: 100;
        stroke-dashoffset: 0;
        animation: dash2 5s linear forwards;
    }
    
    @-webkit-keyframes dash2 {
        0% {
            stroke-dashoffset: 100;
            fill: transparent;
        }
        75% {
            stroke-dashoffset: 0;
            fill: transparent;
        }
        100% {
            stroke-dashoffset: 0;
            fill: #00618A;
        }
    }
</style>
<g>
	<g transform="translate(241.59, -4.64258)">
		<path class="st0" d="M22,277.1c-14.7-0.4-26,1-35.6,5c-2.7,1.2-7.1,1.2-7.5,4.6c1.5,1.6,1.7,3.9,2.9,5.9c2.3,3.7,6.2,8.7,9.6,11.3
			c3.8,2.9,7.7,5.9,11.7,8.4c7.2,4.4,15.2,6.9,22.2,11.3c4.1,2.6,8.1,5.9,12.1,8.8c2,1.4,3.3,3.7,5.9,4.6c0-0.1,0-0.3,0-0.4
			c-1.3-1.7-1.7-4.1-2.9-5.9c-1.8-1.8-3.6-3.6-5.4-5.4c-5.3-7.1-12.1-13.3-19.2-18.4c-5.7-4.1-18.5-9.7-20.9-16.3
			c-0.1-0.1-0.3-0.3-0.4-0.4c4.1-0.5,8.8-1.9,12.6-2.9c6.3-1.7,11.9-1.3,18.4-2.9c2.9-0.8,5.9-1.7,8.8-2.5c0-0.6,0-1.1,0-1.7
			c-3.3-3.4-5.6-7.8-9.2-10.9c-9.4-8-19.6-15.9-30.1-22.6c-5.8-3.7-13.1-6.1-19.2-9.2c-2.1-1.1-5.7-1.6-7.1-3.3
			c-3.3-4.1-5-9.4-7.5-14.2c-5.3-10.1-10.4-21.2-15.1-31.8c-3.2-7.3-5.2-14.4-9.2-20.9c-19-31.2-39.5-50.1-71.1-68.6
			c-6.7-3.9-14.9-5.5-23.4-7.5c-4.6-0.3-9.2-0.6-13.8-0.8c-2.8-1.2-5.7-4.6-8.4-6.3C-190.3,77.5-217.2,63-225,82
			c-4.9,12,7.3,23.6,11.7,29.7c3.1,4.3,7,9,9.2,13.8c1.4,3.1,1.7,6.3,2.9,9.6c3,8.2,5.7,17.1,9.6,24.7c2,3.8,4.2,7.9,6.7,11.3
			c1.5,2.1,4.2,3,4.6,6.3c-2.6,3.6-2.7,9.2-4.2,13.8c-6.5,20.6-4.1,46.3,5.4,61.5c2.9,4.7,9.8,14.7,19.2,10.9
			c8.3-3.4,6.4-13.8,8.8-23c0.5-2.1,0.2-3.6,1.3-5c0,0.1,0,0.3,0,0.4c2.5,5,5,10,7.5,15.1c5.6,9,15.5,18.4,23.9,24.7
			c4.3,3.3,7.8,9,13.4,10.9c0-0.1,0-0.3,0-0.4c-0.1,0-0.3,0-0.4,0c-1.1-1.7-2.8-2.4-4.2-3.8c-3.3-3.2-6.9-7.2-9.6-10.9
			c-7.6-10.4-14.4-21.7-20.5-33.5c-2.9-5.6-5.5-11.8-8-17.6c-1-2.2-0.9-5.6-2.9-6.7c-2.7,4.2-6.7,7.6-8.8,12.6
			c-3.3,7.9-3.8,17.6-5,27.6c-0.7,0.3-0.4,0.1-0.8,0.4c-5.8-1.4-7.9-7.4-10-12.6c-5.5-13-6.5-34-1.7-49c1.2-3.9,6.9-16.1,4.6-19.7
			c-1.1-3.6-4.7-5.6-6.7-8.4c-2.5-3.4-5-7.8-6.7-11.7c-4.5-10.1-6.6-21.5-11.3-31.8c-2.3-4.9-6.1-9.9-9.2-14.2
			c-3.5-4.8-7.4-8.4-10-14.2c-1-2.1-2.3-5.4-0.8-7.5c0.5-1.4,1.1-2,2.5-2.5c2.4-1.9,9.2,0.6,11.7,1.7c6.7,2.8,12.3,5.4,18,9.2
			c2.7,1.8,5.5,5.3,8.8,6.3c1.3,0,2.5,0,3.8,0c5.9,1.4,12.5,0.4,18,2.1c9.7,3,18.4,7.6,26.4,12.6c24.1,15.2,43.8,36.9,57.3,62.8
			c2.2,4.2,3.1,8.1,5,12.6c3.9,8.9,8.7,18.1,12.6,26.8c3.8,8.7,7.6,17.5,13,24.7c2.8,3.8,13.8,5.8,18.8,8c3.5,1.5,9.2,3,12.6,5
			c6.3,3.8,12.5,8.4,18.4,12.6C12.4,268.8,21.5,273.4,22,277.1z"/>
	</g>
	<g transform="translate(272.504, 24.8027)">
		<path class="st1" d="M-196,88.3c-3.1-0.1-5.2,0.3-7.5,0.8c0,0.1,0,0.3,0,0.4c0.1,0,0.3,0,0.4,0c1.5,3,4,4.9,5.9,7.5
			c1.4,2.9,2.8,5.9,4.2,8.8c0.1-0.1,0.3-0.3,0.4-0.4c2.6-1.8,3.8-4.7,3.8-9.2c-1-1.1-1.2-2.5-2.1-3.8
			C-192.2,90.7-194.5,89.7-196,88.3z"/>
	</g>
</g>
</svg>
