<?xml version="1.0" encoding="utf-8"?>
<!-- Generator: Adobe Illustrator 20.1.0, SVG Export Plug-In . SVG Version: 6.00 Build 0)  -->
<svg version="1.1" id="Layer_1" xmlns="http://www.w3.org/2000/svg" xmlns:xlink="http://www.w3.org/1999/xlink" x="0px" y="0px"
	 viewBox="0 0 930.1 1031.6" style="enable-background:new 0 0 930.1 1031.6;" xml:space="preserve">
<style type="text/css">
	.st0{fill:none;stroke:#070516;stroke-width:4;stroke-miterlimit:10;}
	.st1{fill:none;stroke:#30B3D1;stroke-width:4;stroke-miterlimit:10;}
    
    .st0 {
        stroke-dasharray: 4000;
        stroke-dashoffset: 0;
        animation: dash1 5s linear forwards;
    }
    
    @-webkit-keyframes dash1 {
        0% {
            stroke-dashoffset: 4000;
            fill: transparent;
        }
        75% {
            stroke-dashoffset: 0;
            fill: transparent;
        }
        100% {
            stroke-dashoffset: 0;
            fill: #0C0824;
        }
    }
    
    .st1 {
        stroke-dasharray: 4000;
        stroke-dashoffset: 0;
        animation: dash2 5s linear forwards;
    }
    
    @-webkit-keyframes dash2 {
        0% {
            stroke-dashoffset: 4000;
            fill: transparent;
        }
        75% {
            stroke-dashoffset: 0;
            fill: transparent;
        }
        100% {
            stroke-dashoffset: 0;
            fill: #31C5F0;
        }
    }
</style>
<title>icon-square-big</title>
<g>
	<path class="st0" d="M46.7,108.8h836.8v814H46.7V108.8z"/>
	<path class="st1" d="M46.7,108.8h836.8v814H46.7V108.8z M8.6,960.8h912.9v-890H8.6V960.8z M624,435.9c-30,0-40.3,15.2-40.3,27.8
		c0,13.7,6.8,23.2,47.2,44.1c59.7,28.9,78.4,56.7,78.4,97.4c0,60.9-46.4,93.6-109.2,93.6c-33.1,0-61.6-6.8-78-16.4
		c-2.7-1.1-3-3-3-6.1v-55.9c0-3.8,1.9-4.9,4.6-3c24,15.6,51.3,22.4,76.5,22.4c30,0,42.6-12.6,42.6-29.7c0-13.7-8.7-25.9-47.2-45.6
		c-54-25.9-76.5-52.1-76.5-95.9c0-49.1,38.4-89.8,105-89.8c32.7,0,55.5,4.9,68.1,10.7c3,1.9,3.8,4.9,3.8,7.6v52.1
		c0,3-1.9,4.9-5.7,3.8C673.5,442.4,648.8,435.9,624,435.9L624,435.9z M296.9,481.2c8.7,0.8,15.6,0.8,30.8,0.8
		c44.5,0,86.3-15.6,86.3-76.1c0-48.3-30-72.6-80.6-72.6c-15.2,0-29.7,0.8-36.5,1.1V481.2z M229.2,279.2c0-2.7,5.3-4.6,8.4-4.6
		c24.3-1.1,60.5-1.9,98.1-1.9c105.4,0,146.4,57.8,146.4,131.6c0,96.6-70,138.1-155.9,138.1c-14.5,0-19.4-0.8-29.7-0.8v146.1
		c0,3-1.1,4.6-4.6,4.6h-58.2c-3,0-4.6-1.1-4.6-4.6L229.2,279.2L229.2,279.2z"/>
</g>
</svg>
