<?xml version="1.0" encoding="utf-8"?>
<!-- Generator: Adobe Illustrator 20.1.0, SVG Export Plug-In . SVG Version: 6.00 Build 0)  -->
<svg version="1.1" id="Layer_1" xmlns="http://www.w3.org/2000/svg" xmlns:xlink="http://www.w3.org/1999/xlink" x="0px" y="0px"
	 viewBox="0 0 930.1 1031.6" style="enable-background:new 0 0 930.1 1031.6;" xml:space="preserve">
<style type="text/css">
	.st0{fill:none;stroke:#3B8962;stroke-width:4.9194;stroke-miterlimit:10;}
	.st1{fill:none;stroke:#3B4B59;stroke-width:4.9194;stroke-miterlimit:10;}
    
    .st0 {
        stroke-dasharray: 3000;
        stroke-dashoffset: 0;
        animation: dash1 5s linear forwards;
    }
    
    @-webkit-keyframes dash1 {
        0% {
            stroke-dashoffset: 3000;
            fill: transparent;
        }
        75% {
            stroke-dashoffset: 0;
            fill: transparent;
        }
        100% {
            stroke-dashoffset: 0;
            fill: #4DB987;
        }
    }
    
    .st1 {
        stroke-dasharray: 3000;
        stroke-dashoffset: 0;
        animation: dash2 5s linear forwards;
    }
    
    @-webkit-keyframes dash2 {
        0% {
            stroke-dashoffset: 3000;
        }
        75% {
            stroke-dashoffset: 0;
            fill: transparent;
        }
        100% {
            stroke-dashoffset: 0;
            fill: #435466;
        }
    }
</style>
<title>icon-square-big</title>
<g>
	<path class="st0" d="M740,119c59.2-0.1,118.3-0.1,177.5-0.2c8.8,0,4.1,4.1,2.4,7c-48.6,84.2-97.2,168.3-145.8,252.5
		C672.4,554.5,570.6,730.7,468.9,906.9c-1.1,1.9-1.7,4.4-4.5,5.9c-9-15.6-18-31-26.9-46.5C295.1,619.7,152.7,373.1,10.4,126.4
		c-4.4-7.6-4.3-7.6,4.2-7.6c58.5,0,116.9,0.1,175.4,0.1c10.4,18,20.7,36,31.1,54c36.1,62.7,72.2,125.4,108.3,188.1
		c40,69.3,80.1,138.7,120.1,208c4.9,8.6,10.1,17,15.5,26.2c1.2-1.9,1.9-2.8,2.5-3.8c24.2-41.8,48.3-83.7,72.5-125.5
		c22.5-39,45.1-78,67.6-117c25.6-44.3,51.2-88.5,76.7-132.8C702.8,183.8,721.4,151.4,740,119z"/>
	<path class="st1" d="M740.1,119.1c-18.6,32.4-37.1,64.8-55.8,97.1c-25.5,44.3-51.1,88.5-76.7,132.8c-22.5,39-45.1,78-67.6,117
		c-24.2,41.8-48.3,83.7-72.5,125.5c-0.6,1-1.2,1.9-2.5,3.8c-5.4-9.2-10.5-17.6-15.5-26.2c-40.1-69.3-80.1-138.6-120.1-208
		c-36.1-62.7-72.2-125.4-108.3-188.1c-10.4-18-20.7-36-31.1-54c0.9-0.1,1.7-0.2,2.6-0.3c2.8,0.2,5.6,0.5,8.3,0.5
		c28.7,0,57.4,0.1,86.1,0c23.8,0,47.6-0.2,71.4-0.3c2.5,1.2,3.2,3.9,4.4,6.1c32.7,56.5,65.3,113,98,169.5c1.1,2,1.7,5.2,4,5.4
		c3,0.2,3.4-3.4,4.6-5.4c32.8-56.7,65.5-113.4,98.3-170.1c1.1-1.9,1.7-4.4,4.1-5.4c1.4,0.1,2.8,0.3,4.2,0.3c52,0,104.1,0,156.1,0
		c1.8,0,3.7-0.3,5.5-0.5C738.4,118.9,739.2,119,740.1,119.1z"/>
</g>
</svg>
