<?xml version="1.0" encoding="utf-8"?>
<!-- Generator: Adobe Illustrator 20.1.0, SVG Export Plug-In . SVG Version: 6.00 Build 0)  -->
<svg version="1.1" id="Layer_1" xmlns="http://www.w3.org/2000/svg" xmlns:xlink="http://www.w3.org/1999/xlink" x="0px" y="0px"
	 viewBox="0 0 930.1 1031.6" style="enable-background:new 0 0 930.1 1031.6;" xml:space="preserve">
<style type="text/css">
	.st0{fill:transparent;stroke:#85CAE5;stroke-width:4;stroke-miterlimit:10;}
	.st1{fill:transparent;stroke:#19679B;stroke-width:4;stroke-miterlimit:10;}
    
    .st0 {
        stroke-dasharray: 1220;
        stroke-dashoffset: 0;
        animation: dash1 5s linear forwards;
    }
    
    @-webkit-keyframes dash1 {
        0% {
            stroke-dashoffset: 1220;
            fill: transparent;
        }
        75% {
            stroke-dashoffset: 0;
            fill: transparent;
        }
        100% {
            stroke-dashoffset: 0;
            fill: #8ED6FB;
        }
    }
    
    .st1 {
        stroke-dasharray: 1220;
        stroke-dashoffset: 0;
        animation: dash2 5s linear forwards;
    }
    
    @-webkit-keyframes dash2 {
        0% {
            stroke-dashoffset: 1220;
        }
        75% {
            stroke-dashoffset: 0;
            fill: transparent;
        }
        100% {
            stroke-dashoffset: 0;
            fill: #1C78C0;
        }
    }
</style>
<title>icon-square-big</title>
<path class="st0" d="M892.9,789.6L483,1021.4V840.8l255.3-140.5L892.9,789.6z M920.9,764.2V279.4l-150,86.6v311.6L920.9,764.2
	L920.9,764.2z M37.2,789.6l409.8,231.8V840.8L191.7,700.4L37.2,789.6L37.2,789.6z M9.2,764.2V279.4l150,86.6v311.6L9.2,764.2
	L9.2,764.2z M26.7,248L447.1,10.2v174.6L177.8,332.9l-2.1,1.2L26.7,248z M903.4,248L483,10.2v174.6l269.3,148.1l2.1,1.2L903.4,248z"
	/>
<path class="st1" d="M447.1,807.7L195.1,669.2V394.7l251.9,145.5V807.7L447.1,807.7z M483,807.7L735,669.2V394.7L483,540.2V807.7
	L483,807.7z M212.2,363l252.9-139.1L718,363L465.1,509L212.2,363z"/>
</svg>
