<?xml version="1.0" encoding="utf-8"?>
<!-- Generator: Adobe Illustrator 20.1.0, SVG Export Plug-In . SVG Version: 6.00 Build 0)  -->
<svg version="1.1" id="Layer_1" xmlns="http://www.w3.org/2000/svg" xmlns:xlink="http://www.w3.org/1999/xlink" x="0px" y="0px"
	 width="908.3px" height="80.7px" viewBox="0 0 908.3 80.7" style="enable-background:new 0 0 908.3 80.7;" xml:space="preserve">
<style type="text/css">
	.st0{fill:none;stroke:#FFFFFF;stroke-width:1.4446;stroke-miterlimit:10;}
</style>
<polyline class="st0" points="0,46.3 54.8,46.3 77.6,5.8 114,74.9 136.8,28.4 150.4,47.4 218.8,47.4 242.1,5.8 276,74.9 299.4,28.4 
	314.6,46.3 317.2,46.3 340,5.8 376.3,74.9 399.1,28.4 412.7,47.4 481.1,47.4 504.4,5.8 538.4,74.9 561.7,28.4 576.9,46.3 
	579.4,46.3 602.2,5.8 638.6,74.9 661.3,28.4 674.9,47.4 743.3,47.4 766.7,5.8 800.6,74.9 823.9,28.4 839.1,46.3 908.3,46.3 "/>
</svg>
